%TF.GenerationSoftware,KiCad,Pcbnew,8.0.9-8.0.9-0~ubuntu22.04.1*%
%TF.CreationDate,2025-04-09T02:20:17+02:00*%
%TF.ProjectId,00pcb,30307063-622e-46b6-9963-61645f706362,rev?*%
%TF.SameCoordinates,Original*%
%TF.FileFunction,Legend,Top*%
%TF.FilePolarity,Positive*%
%FSLAX46Y46*%
G04 Gerber Fmt 4.6, Leading zero omitted, Abs format (unit mm)*
G04 Created by KiCad (PCBNEW 8.0.9-8.0.9-0~ubuntu22.04.1) date 2025-04-09 02:20:17*
%MOMM*%
%LPD*%
G01*
G04 APERTURE LIST*
%ADD10C,0.150000*%
%ADD11C,0.120000*%
%ADD12C,0.350000*%
G04 APERTURE END LIST*
D10*
X118004819Y-103083333D02*
X118719104Y-103083333D01*
X118719104Y-103083333D02*
X118861961Y-103130952D01*
X118861961Y-103130952D02*
X118957200Y-103226190D01*
X118957200Y-103226190D02*
X119004819Y-103369047D01*
X119004819Y-103369047D02*
X119004819Y-103464285D01*
X118004819Y-102702380D02*
X118004819Y-102035714D01*
X118004819Y-102035714D02*
X119004819Y-102464285D01*
X148904819Y-85833333D02*
X149619104Y-85833333D01*
X149619104Y-85833333D02*
X149761961Y-85880952D01*
X149761961Y-85880952D02*
X149857200Y-85976190D01*
X149857200Y-85976190D02*
X149904819Y-86119047D01*
X149904819Y-86119047D02*
X149904819Y-86214285D01*
X148904819Y-84880952D02*
X148904819Y-85357142D01*
X148904819Y-85357142D02*
X149381009Y-85404761D01*
X149381009Y-85404761D02*
X149333390Y-85357142D01*
X149333390Y-85357142D02*
X149285771Y-85261904D01*
X149285771Y-85261904D02*
X149285771Y-85023809D01*
X149285771Y-85023809D02*
X149333390Y-84928571D01*
X149333390Y-84928571D02*
X149381009Y-84880952D01*
X149381009Y-84880952D02*
X149476247Y-84833333D01*
X149476247Y-84833333D02*
X149714342Y-84833333D01*
X149714342Y-84833333D02*
X149809580Y-84880952D01*
X149809580Y-84880952D02*
X149857200Y-84928571D01*
X149857200Y-84928571D02*
X149904819Y-85023809D01*
X149904819Y-85023809D02*
X149904819Y-85261904D01*
X149904819Y-85261904D02*
X149857200Y-85357142D01*
X149857200Y-85357142D02*
X149809580Y-85404761D01*
X140904819Y-102833333D02*
X141619104Y-102833333D01*
X141619104Y-102833333D02*
X141761961Y-102880952D01*
X141761961Y-102880952D02*
X141857200Y-102976190D01*
X141857200Y-102976190D02*
X141904819Y-103119047D01*
X141904819Y-103119047D02*
X141904819Y-103214285D01*
X141238152Y-101928571D02*
X141904819Y-101928571D01*
X140857200Y-102166666D02*
X141571485Y-102404761D01*
X141571485Y-102404761D02*
X141571485Y-101785714D01*
X111666666Y-83654819D02*
X111666666Y-84369104D01*
X111666666Y-84369104D02*
X111619047Y-84511961D01*
X111619047Y-84511961D02*
X111523809Y-84607200D01*
X111523809Y-84607200D02*
X111380952Y-84654819D01*
X111380952Y-84654819D02*
X111285714Y-84654819D01*
X112666666Y-84654819D02*
X112095238Y-84654819D01*
X112380952Y-84654819D02*
X112380952Y-83654819D01*
X112380952Y-83654819D02*
X112285714Y-83797676D01*
X112285714Y-83797676D02*
X112190476Y-83892914D01*
X112190476Y-83892914D02*
X112095238Y-83940533D01*
X124124819Y-80333333D02*
X124839104Y-80333333D01*
X124839104Y-80333333D02*
X124981961Y-80380952D01*
X124981961Y-80380952D02*
X125077200Y-80476190D01*
X125077200Y-80476190D02*
X125124819Y-80619047D01*
X125124819Y-80619047D02*
X125124819Y-80714285D01*
X124124819Y-79428571D02*
X124124819Y-79619047D01*
X124124819Y-79619047D02*
X124172438Y-79714285D01*
X124172438Y-79714285D02*
X124220057Y-79761904D01*
X124220057Y-79761904D02*
X124362914Y-79857142D01*
X124362914Y-79857142D02*
X124553390Y-79904761D01*
X124553390Y-79904761D02*
X124934342Y-79904761D01*
X124934342Y-79904761D02*
X125029580Y-79857142D01*
X125029580Y-79857142D02*
X125077200Y-79809523D01*
X125077200Y-79809523D02*
X125124819Y-79714285D01*
X125124819Y-79714285D02*
X125124819Y-79523809D01*
X125124819Y-79523809D02*
X125077200Y-79428571D01*
X125077200Y-79428571D02*
X125029580Y-79380952D01*
X125029580Y-79380952D02*
X124934342Y-79333333D01*
X124934342Y-79333333D02*
X124696247Y-79333333D01*
X124696247Y-79333333D02*
X124601009Y-79380952D01*
X124601009Y-79380952D02*
X124553390Y-79428571D01*
X124553390Y-79428571D02*
X124505771Y-79523809D01*
X124505771Y-79523809D02*
X124505771Y-79714285D01*
X124505771Y-79714285D02*
X124553390Y-79809523D01*
X124553390Y-79809523D02*
X124601009Y-79857142D01*
X124601009Y-79857142D02*
X124696247Y-79904761D01*
X127584819Y-105333333D02*
X128299104Y-105333333D01*
X128299104Y-105333333D02*
X128441961Y-105380952D01*
X128441961Y-105380952D02*
X128537200Y-105476190D01*
X128537200Y-105476190D02*
X128584819Y-105619047D01*
X128584819Y-105619047D02*
X128584819Y-105714285D01*
X128584819Y-104809523D02*
X128584819Y-104619047D01*
X128584819Y-104619047D02*
X128537200Y-104523809D01*
X128537200Y-104523809D02*
X128489580Y-104476190D01*
X128489580Y-104476190D02*
X128346723Y-104380952D01*
X128346723Y-104380952D02*
X128156247Y-104333333D01*
X128156247Y-104333333D02*
X127775295Y-104333333D01*
X127775295Y-104333333D02*
X127680057Y-104380952D01*
X127680057Y-104380952D02*
X127632438Y-104428571D01*
X127632438Y-104428571D02*
X127584819Y-104523809D01*
X127584819Y-104523809D02*
X127584819Y-104714285D01*
X127584819Y-104714285D02*
X127632438Y-104809523D01*
X127632438Y-104809523D02*
X127680057Y-104857142D01*
X127680057Y-104857142D02*
X127775295Y-104904761D01*
X127775295Y-104904761D02*
X128013390Y-104904761D01*
X128013390Y-104904761D02*
X128108628Y-104857142D01*
X128108628Y-104857142D02*
X128156247Y-104809523D01*
X128156247Y-104809523D02*
X128203866Y-104714285D01*
X128203866Y-104714285D02*
X128203866Y-104523809D01*
X128203866Y-104523809D02*
X128156247Y-104428571D01*
X128156247Y-104428571D02*
X128108628Y-104380952D01*
X128108628Y-104380952D02*
X128013390Y-104333333D01*
X140904819Y-85833333D02*
X141619104Y-85833333D01*
X141619104Y-85833333D02*
X141761961Y-85880952D01*
X141761961Y-85880952D02*
X141857200Y-85976190D01*
X141857200Y-85976190D02*
X141904819Y-86119047D01*
X141904819Y-86119047D02*
X141904819Y-86214285D01*
X141333390Y-85214285D02*
X141285771Y-85309523D01*
X141285771Y-85309523D02*
X141238152Y-85357142D01*
X141238152Y-85357142D02*
X141142914Y-85404761D01*
X141142914Y-85404761D02*
X141095295Y-85404761D01*
X141095295Y-85404761D02*
X141000057Y-85357142D01*
X141000057Y-85357142D02*
X140952438Y-85309523D01*
X140952438Y-85309523D02*
X140904819Y-85214285D01*
X140904819Y-85214285D02*
X140904819Y-85023809D01*
X140904819Y-85023809D02*
X140952438Y-84928571D01*
X140952438Y-84928571D02*
X141000057Y-84880952D01*
X141000057Y-84880952D02*
X141095295Y-84833333D01*
X141095295Y-84833333D02*
X141142914Y-84833333D01*
X141142914Y-84833333D02*
X141238152Y-84880952D01*
X141238152Y-84880952D02*
X141285771Y-84928571D01*
X141285771Y-84928571D02*
X141333390Y-85023809D01*
X141333390Y-85023809D02*
X141333390Y-85214285D01*
X141333390Y-85214285D02*
X141381009Y-85309523D01*
X141381009Y-85309523D02*
X141428628Y-85357142D01*
X141428628Y-85357142D02*
X141523866Y-85404761D01*
X141523866Y-85404761D02*
X141714342Y-85404761D01*
X141714342Y-85404761D02*
X141809580Y-85357142D01*
X141809580Y-85357142D02*
X141857200Y-85309523D01*
X141857200Y-85309523D02*
X141904819Y-85214285D01*
X141904819Y-85214285D02*
X141904819Y-85023809D01*
X141904819Y-85023809D02*
X141857200Y-84928571D01*
X141857200Y-84928571D02*
X141809580Y-84880952D01*
X141809580Y-84880952D02*
X141714342Y-84833333D01*
X141714342Y-84833333D02*
X141523866Y-84833333D01*
X141523866Y-84833333D02*
X141428628Y-84880952D01*
X141428628Y-84880952D02*
X141381009Y-84928571D01*
X141381009Y-84928571D02*
X141333390Y-85023809D01*
X116666666Y-83599819D02*
X116666666Y-84314104D01*
X116666666Y-84314104D02*
X116619047Y-84456961D01*
X116619047Y-84456961D02*
X116523809Y-84552200D01*
X116523809Y-84552200D02*
X116380952Y-84599819D01*
X116380952Y-84599819D02*
X116285714Y-84599819D01*
X117095238Y-83695057D02*
X117142857Y-83647438D01*
X117142857Y-83647438D02*
X117238095Y-83599819D01*
X117238095Y-83599819D02*
X117476190Y-83599819D01*
X117476190Y-83599819D02*
X117571428Y-83647438D01*
X117571428Y-83647438D02*
X117619047Y-83695057D01*
X117619047Y-83695057D02*
X117666666Y-83790295D01*
X117666666Y-83790295D02*
X117666666Y-83885533D01*
X117666666Y-83885533D02*
X117619047Y-84028390D01*
X117619047Y-84028390D02*
X117047619Y-84599819D01*
X117047619Y-84599819D02*
X117666666Y-84599819D01*
X148904819Y-102833333D02*
X149619104Y-102833333D01*
X149619104Y-102833333D02*
X149761961Y-102880952D01*
X149761961Y-102880952D02*
X149857200Y-102976190D01*
X149857200Y-102976190D02*
X149904819Y-103119047D01*
X149904819Y-103119047D02*
X149904819Y-103214285D01*
X148904819Y-102452380D02*
X148904819Y-101833333D01*
X148904819Y-101833333D02*
X149285771Y-102166666D01*
X149285771Y-102166666D02*
X149285771Y-102023809D01*
X149285771Y-102023809D02*
X149333390Y-101928571D01*
X149333390Y-101928571D02*
X149381009Y-101880952D01*
X149381009Y-101880952D02*
X149476247Y-101833333D01*
X149476247Y-101833333D02*
X149714342Y-101833333D01*
X149714342Y-101833333D02*
X149809580Y-101880952D01*
X149809580Y-101880952D02*
X149857200Y-101928571D01*
X149857200Y-101928571D02*
X149904819Y-102023809D01*
X149904819Y-102023809D02*
X149904819Y-102309523D01*
X149904819Y-102309523D02*
X149857200Y-102404761D01*
X149857200Y-102404761D02*
X149809580Y-102452380D01*
D11*
%TO.C,J7*%
X111490000Y-96440000D02*
X111490000Y-109060000D01*
X111490000Y-109060000D02*
X117460000Y-109060000D01*
X112250000Y-97200000D02*
X112250000Y-102750000D01*
X112250000Y-108300000D02*
X112250000Y-102750000D01*
X115200000Y-96450000D02*
X115200000Y-97200000D01*
X115200000Y-97200000D02*
X112250000Y-97200000D01*
X115200000Y-108300000D02*
X112250000Y-108300000D01*
X115200000Y-109050000D02*
X115200000Y-108300000D01*
X116700000Y-96450000D02*
X116700000Y-98250000D01*
X116700000Y-98250000D02*
X117450000Y-98250000D01*
X116700000Y-99750000D02*
X116700000Y-105750000D01*
X116700000Y-105750000D02*
X117450000Y-105750000D01*
X116700000Y-107250000D02*
X116700000Y-109050000D01*
X116700000Y-109050000D02*
X117450000Y-109050000D01*
X117450000Y-96450000D02*
X116700000Y-96450000D01*
X117450000Y-98250000D02*
X117450000Y-96450000D01*
X117450000Y-99750000D02*
X116700000Y-99750000D01*
X117450000Y-105750000D02*
X117450000Y-99750000D01*
X117450000Y-107250000D02*
X116700000Y-107250000D01*
X117450000Y-109050000D02*
X117450000Y-107250000D01*
X117460000Y-96440000D02*
X111490000Y-96440000D01*
X117460000Y-109060000D02*
X117460000Y-96440000D01*
X117750000Y-96150000D02*
X116500000Y-96150000D01*
X117750000Y-97400000D02*
X117750000Y-96150000D01*
%TO.C,J5*%
X156510000Y-93060000D02*
X156510000Y-77940000D01*
X156510000Y-77940000D02*
X150540000Y-77940000D01*
X155750000Y-92300000D02*
X155750000Y-85500000D01*
X155750000Y-78700000D02*
X155750000Y-85500000D01*
X152800000Y-93050000D02*
X152800000Y-92300000D01*
X152800000Y-92300000D02*
X155750000Y-92300000D01*
X152800000Y-78700000D02*
X155750000Y-78700000D01*
X152800000Y-77950000D02*
X152800000Y-78700000D01*
X151300000Y-93050000D02*
X151300000Y-91250000D01*
X151300000Y-91250000D02*
X150550000Y-91250000D01*
X151300000Y-89750000D02*
X151300000Y-81250000D01*
X151300000Y-81250000D02*
X150550000Y-81250000D01*
X151300000Y-79750000D02*
X151300000Y-77950000D01*
X151300000Y-77950000D02*
X150550000Y-77950000D01*
X150550000Y-93050000D02*
X151300000Y-93050000D01*
X150550000Y-91250000D02*
X150550000Y-93050000D01*
X150550000Y-89750000D02*
X151300000Y-89750000D01*
X150550000Y-81250000D02*
X150550000Y-89750000D01*
X150550000Y-79750000D02*
X151300000Y-79750000D01*
X150550000Y-77950000D02*
X150550000Y-79750000D01*
X150540000Y-93060000D02*
X156510000Y-93060000D01*
X150540000Y-77940000D02*
X150540000Y-93060000D01*
X150250000Y-93350000D02*
X151500000Y-93350000D01*
X150250000Y-92100000D02*
X150250000Y-93350000D01*
%TO.C,J4*%
X142250000Y-109100000D02*
X142250000Y-110350000D01*
X142250000Y-110350000D02*
X143500000Y-110350000D01*
X142540000Y-94940000D02*
X142540000Y-110060000D01*
X142540000Y-110060000D02*
X148510000Y-110060000D01*
X142550000Y-94950000D02*
X142550000Y-96750000D01*
X142550000Y-96750000D02*
X143300000Y-96750000D01*
X142550000Y-98250000D02*
X142550000Y-106750000D01*
X142550000Y-106750000D02*
X143300000Y-106750000D01*
X142550000Y-108250000D02*
X142550000Y-110050000D01*
X142550000Y-110050000D02*
X143300000Y-110050000D01*
X143300000Y-94950000D02*
X142550000Y-94950000D01*
X143300000Y-96750000D02*
X143300000Y-94950000D01*
X143300000Y-98250000D02*
X142550000Y-98250000D01*
X143300000Y-106750000D02*
X143300000Y-98250000D01*
X143300000Y-108250000D02*
X142550000Y-108250000D01*
X143300000Y-110050000D02*
X143300000Y-108250000D01*
X144800000Y-94950000D02*
X144800000Y-95700000D01*
X144800000Y-95700000D02*
X147750000Y-95700000D01*
X144800000Y-109300000D02*
X147750000Y-109300000D01*
X144800000Y-110050000D02*
X144800000Y-109300000D01*
X147750000Y-95700000D02*
X147750000Y-102500000D01*
X147750000Y-109300000D02*
X147750000Y-102500000D01*
X148510000Y-94940000D02*
X142540000Y-94940000D01*
X148510000Y-110060000D02*
X148510000Y-94940000D01*
%TO.C,J1*%
X110670000Y-89205000D02*
X110670000Y-86605000D01*
X113330000Y-86605000D02*
X110670000Y-86605000D01*
X113330000Y-89205000D02*
X110670000Y-89205000D01*
X113330000Y-89205000D02*
X113330000Y-86605000D01*
X113330000Y-90475000D02*
X113330000Y-91805000D01*
X113330000Y-91805000D02*
X112000000Y-91805000D01*
%TO.C,J6*%
X135950000Y-81330000D02*
X135950000Y-78670000D01*
X128270000Y-81330000D02*
X135950000Y-81330000D01*
X128270000Y-81330000D02*
X128270000Y-78670000D01*
X128270000Y-78670000D02*
X135950000Y-78670000D01*
X127000000Y-81330000D02*
X125670000Y-81330000D01*
X125670000Y-81330000D02*
X125670000Y-80000000D01*
%TO.C,J9*%
X129130000Y-106330000D02*
X129130000Y-105000000D01*
X130460000Y-106330000D02*
X129130000Y-106330000D01*
X131730000Y-103670000D02*
X134330000Y-103670000D01*
X131730000Y-106330000D02*
X131730000Y-103670000D01*
X131730000Y-106330000D02*
X134330000Y-106330000D01*
X134330000Y-106330000D02*
X134330000Y-103670000D01*
%TO.C,J8*%
X142250000Y-92100000D02*
X142250000Y-93350000D01*
X142250000Y-93350000D02*
X143500000Y-93350000D01*
X142540000Y-77940000D02*
X142540000Y-93060000D01*
X142540000Y-93060000D02*
X148510000Y-93060000D01*
X142550000Y-77950000D02*
X142550000Y-79750000D01*
X142550000Y-79750000D02*
X143300000Y-79750000D01*
X142550000Y-81250000D02*
X142550000Y-89750000D01*
X142550000Y-89750000D02*
X143300000Y-89750000D01*
X142550000Y-91250000D02*
X142550000Y-93050000D01*
X142550000Y-93050000D02*
X143300000Y-93050000D01*
X143300000Y-77950000D02*
X142550000Y-77950000D01*
X143300000Y-79750000D02*
X143300000Y-77950000D01*
X143300000Y-81250000D02*
X142550000Y-81250000D01*
X143300000Y-89750000D02*
X143300000Y-81250000D01*
X143300000Y-91250000D02*
X142550000Y-91250000D01*
X143300000Y-93050000D02*
X143300000Y-91250000D01*
X144800000Y-77950000D02*
X144800000Y-78700000D01*
X144800000Y-78700000D02*
X147750000Y-78700000D01*
X144800000Y-92300000D02*
X147750000Y-92300000D01*
X144800000Y-93050000D02*
X144800000Y-92300000D01*
X147750000Y-78700000D02*
X147750000Y-85500000D01*
X147750000Y-92300000D02*
X147750000Y-85500000D01*
X148510000Y-77940000D02*
X142540000Y-77940000D01*
X148510000Y-93060000D02*
X148510000Y-77940000D01*
%TO.C,J2*%
X115670000Y-85145000D02*
X117000000Y-85145000D01*
X115670000Y-86475000D02*
X115670000Y-85145000D01*
X115670000Y-87745000D02*
X115670000Y-92885000D01*
X115670000Y-87745000D02*
X118330000Y-87745000D01*
X115670000Y-92885000D02*
X118330000Y-92885000D01*
X118330000Y-87745000D02*
X118330000Y-92885000D01*
%TO.C,J3*%
X156510000Y-110060000D02*
X156510000Y-94940000D01*
X156510000Y-94940000D02*
X150540000Y-94940000D01*
X155750000Y-109300000D02*
X155750000Y-102500000D01*
X155750000Y-95700000D02*
X155750000Y-102500000D01*
X152800000Y-110050000D02*
X152800000Y-109300000D01*
X152800000Y-109300000D02*
X155750000Y-109300000D01*
X152800000Y-95700000D02*
X155750000Y-95700000D01*
X152800000Y-94950000D02*
X152800000Y-95700000D01*
X151300000Y-110050000D02*
X151300000Y-108250000D01*
X151300000Y-108250000D02*
X150550000Y-108250000D01*
X151300000Y-106750000D02*
X151300000Y-98250000D01*
X151300000Y-98250000D02*
X150550000Y-98250000D01*
X151300000Y-96750000D02*
X151300000Y-94950000D01*
X151300000Y-94950000D02*
X150550000Y-94950000D01*
X150550000Y-110050000D02*
X151300000Y-110050000D01*
X150550000Y-108250000D02*
X150550000Y-110050000D01*
X150550000Y-106750000D02*
X151300000Y-106750000D01*
X150550000Y-98250000D02*
X150550000Y-106750000D01*
X150550000Y-96750000D02*
X151300000Y-96750000D01*
X150550000Y-94950000D02*
X150550000Y-96750000D01*
X150540000Y-110060000D02*
X156510000Y-110060000D01*
X150540000Y-94940000D02*
X150540000Y-110060000D01*
X150250000Y-110350000D02*
X151500000Y-110350000D01*
X150250000Y-109100000D02*
X150250000Y-110350000D01*
%TD*%
D12*
X115000000Y-99000000D03*
X115000000Y-101500000D03*
X115000000Y-104000000D03*
X115000000Y-106500000D03*
X153000000Y-90500000D03*
X153000000Y-88000000D03*
X153000000Y-85500000D03*
X153000000Y-83000000D03*
X153000000Y-80500000D03*
X145000000Y-97500000D03*
X145000000Y-100000000D03*
X145000000Y-102500000D03*
X145000000Y-105000000D03*
X145000000Y-107500000D03*
X112000000Y-90475000D03*
X112000000Y-87935000D03*
X127000000Y-80000000D03*
X129540000Y-80000000D03*
X132080000Y-80000000D03*
X134620000Y-80000000D03*
X130460000Y-105000000D03*
X133000000Y-105000000D03*
X145000000Y-80500000D03*
X145000000Y-83000000D03*
X145000000Y-85500000D03*
X145000000Y-88000000D03*
X145000000Y-90500000D03*
X117000000Y-86475000D03*
X117000000Y-89015000D03*
X117000000Y-91555000D03*
X153000000Y-107500000D03*
X153000000Y-105000000D03*
X153000000Y-102500000D03*
X153000000Y-100000000D03*
X153000000Y-97500000D03*
X123380000Y-106880000D03*
X123380000Y-104340000D03*
X123380000Y-101800000D03*
X123380000Y-99260000D03*
X123380000Y-94180000D03*
X123380000Y-96720000D03*
X138620000Y-89100000D03*
X123380000Y-89100000D03*
X138620000Y-91640000D03*
X138620000Y-94180000D03*
X138620000Y-96720000D03*
X138620000Y-99260000D03*
X138620000Y-101800000D03*
X138620000Y-104340000D03*
X138620000Y-106880000D03*
X123380000Y-91640000D03*
M02*
