%TF.GenerationSoftware,KiCad,Pcbnew,8.0.9-8.0.9-0~ubuntu22.04.1*%
%TF.CreationDate,2025-04-09T02:20:17+02:00*%
%TF.ProjectId,00pcb,30307063-622e-46b6-9963-61645f706362,rev?*%
%TF.SameCoordinates,Original*%
%TF.FileFunction,Copper,L2,Bot*%
%TF.FilePolarity,Positive*%
%FSLAX46Y46*%
G04 Gerber Fmt 4.6, Leading zero omitted, Abs format (unit mm)*
G04 Created by KiCad (PCBNEW 8.0.9-8.0.9-0~ubuntu22.04.1) date 2025-04-09 02:20:17*
%MOMM*%
%LPD*%
G01*
G04 APERTURE LIST*
G04 Aperture macros list*
%AMRoundRect*
0 Rectangle with rounded corners*
0 $1 Rounding radius*
0 $2 $3 $4 $5 $6 $7 $8 $9 X,Y pos of 4 corners*
0 Add a 4 corners polygon primitive as box body*
4,1,4,$2,$3,$4,$5,$6,$7,$8,$9,$2,$3,0*
0 Add four circle primitives for the rounded corners*
1,1,$1+$1,$2,$3*
1,1,$1+$1,$4,$5*
1,1,$1+$1,$6,$7*
1,1,$1+$1,$8,$9*
0 Add four rect primitives between the rounded corners*
20,1,$1+$1,$2,$3,$4,$5,0*
20,1,$1+$1,$4,$5,$6,$7,0*
20,1,$1+$1,$6,$7,$8,$9,0*
20,1,$1+$1,$8,$9,$2,$3,0*%
G04 Aperture macros list end*
%TA.AperFunction,ComponentPad*%
%ADD10RoundRect,0.250000X-0.725000X0.600000X-0.725000X-0.600000X0.725000X-0.600000X0.725000X0.600000X0*%
%TD*%
%TA.AperFunction,ComponentPad*%
%ADD11O,1.950000X1.700000*%
%TD*%
%TA.AperFunction,ComponentPad*%
%ADD12RoundRect,0.250000X0.725000X-0.600000X0.725000X0.600000X-0.725000X0.600000X-0.725000X-0.600000X0*%
%TD*%
%TA.AperFunction,ComponentPad*%
%ADD13R,1.700000X1.700000*%
%TD*%
%TA.AperFunction,ComponentPad*%
%ADD14O,1.700000X1.700000*%
%TD*%
%TA.AperFunction,ComponentPad*%
%ADD15C,1.905000*%
%TD*%
%TA.AperFunction,ViaPad*%
%ADD16C,5.000000*%
%TD*%
%TA.AperFunction,ViaPad*%
%ADD17C,0.600000*%
%TD*%
%TA.AperFunction,Conductor*%
%ADD18C,0.200000*%
%TD*%
%ADD19C,0.350000*%
%ADD20C,0.300000*%
G04 APERTURE END LIST*
D10*
%TO.P,J7,1,Pin_1*%
%TO.N,dir*%
X115000000Y-99000000D03*
D11*
%TO.P,J7,2,Pin_2*%
%TO.N,stp*%
X115000000Y-101500000D03*
%TO.P,J7,3,Pin_3*%
%TO.N,en*%
X115000000Y-104000000D03*
%TO.P,J7,4,Pin_4*%
%TO.N,GND*%
X115000000Y-106500000D03*
%TD*%
D12*
%TO.P,J5,1,Pin_1*%
%TO.N,VCC*%
X153000000Y-90500000D03*
D11*
%TO.P,J5,2,Pin_2*%
%TO.N,GND*%
X153000000Y-88000000D03*
%TO.P,J5,3,Pin_3*%
%TO.N,scl*%
X153000000Y-85500000D03*
%TO.P,J5,4,Pin_4*%
%TO.N,sda*%
X153000000Y-83000000D03*
%TO.P,J5,5,Pin_5*%
%TO.N,xshut3*%
X153000000Y-80500000D03*
%TD*%
%TO.P,J4,5,Pin_5*%
%TO.N,xshut2*%
X145000000Y-97500000D03*
%TO.P,J4,4,Pin_4*%
%TO.N,sda*%
X145000000Y-100000000D03*
%TO.P,J4,3,Pin_3*%
%TO.N,scl*%
X145000000Y-102500000D03*
%TO.P,J4,2,Pin_2*%
%TO.N,GND*%
X145000000Y-105000000D03*
D12*
%TO.P,J4,1,Pin_1*%
%TO.N,VCC*%
X145000000Y-107500000D03*
%TD*%
D13*
%TO.P,J1,1,Pin_1*%
%TO.N,GND*%
X112000000Y-90475000D03*
D14*
%TO.P,J1,2,Pin_2*%
%TO.N,boot_btn*%
X112000000Y-87935000D03*
%TD*%
D13*
%TO.P,J6,1,Pin_1*%
%TO.N,GND*%
X127000000Y-80000000D03*
D14*
%TO.P,J6,2,Pin_2*%
%TO.N,3.3*%
X129540000Y-80000000D03*
%TO.P,J6,3,Pin_3*%
%TO.N,scl*%
X132080000Y-80000000D03*
%TO.P,J6,4,Pin_4*%
%TO.N,sda*%
X134620000Y-80000000D03*
%TD*%
D13*
%TO.P,J9,1,Pin_1*%
%TO.N,GND*%
X130460000Y-105000000D03*
D14*
%TO.P,J9,2,Pin_2*%
%TO.N,VCC*%
X133000000Y-105000000D03*
%TD*%
D11*
%TO.P,J8,5,Pin_5*%
%TO.N,xshut4*%
X145000000Y-80500000D03*
%TO.P,J8,4,Pin_4*%
%TO.N,sda*%
X145000000Y-83000000D03*
%TO.P,J8,3,Pin_3*%
%TO.N,scl*%
X145000000Y-85500000D03*
%TO.P,J8,2,Pin_2*%
%TO.N,GND*%
X145000000Y-88000000D03*
D12*
%TO.P,J8,1,Pin_1*%
%TO.N,VCC*%
X145000000Y-90500000D03*
%TD*%
D13*
%TO.P,J2,1,Pin_1*%
%TO.N,VCC*%
X117000000Y-86475000D03*
D14*
%TO.P,J2,2,Pin_2*%
%TO.N,GND*%
X117000000Y-89015000D03*
%TO.P,J2,3,Pin_3*%
%TO.N,end_s*%
X117000000Y-91555000D03*
%TD*%
D12*
%TO.P,J3,1,Pin_1*%
%TO.N,VCC*%
X153000000Y-107500000D03*
D11*
%TO.P,J3,2,Pin_2*%
%TO.N,GND*%
X153000000Y-105000000D03*
%TO.P,J3,3,Pin_3*%
%TO.N,scl*%
X153000000Y-102500000D03*
%TO.P,J3,4,Pin_4*%
%TO.N,sda*%
X153000000Y-100000000D03*
%TO.P,J3,5,Pin_5*%
%TO.N,xshut1*%
X153000000Y-97500000D03*
%TD*%
D15*
%TO.P,U1,0,GPIO0*%
%TO.N,boot_btn*%
X123380000Y-106880000D03*
%TO.P,U1,1,GPIO1*%
%TO.N,en*%
X123380000Y-104340000D03*
%TO.P,U1,2,GPIO2*%
%TO.N,stp*%
X123380000Y-101800000D03*
%TO.P,U1,3,GPIO3*%
%TO.N,dir*%
X123380000Y-99260000D03*
%TO.P,U1,3.3,3V3*%
%TO.N,3.3*%
X123380000Y-94180000D03*
%TO.P,U1,4,GPIO4*%
%TO.N,end_s*%
X123380000Y-96720000D03*
%TO.P,U1,5,GPIO5*%
%TO.N,xshut4*%
X138620000Y-89100000D03*
%TO.P,U1,5V,5V*%
%TO.N,VCC*%
X123380000Y-89100000D03*
%TO.P,U1,6,GPIO6*%
%TO.N,sda*%
X138620000Y-91640000D03*
%TO.P,U1,7,GPIO7*%
%TO.N,scl*%
X138620000Y-94180000D03*
%TO.P,U1,8,GPIO8*%
%TO.N,xshut1*%
X138620000Y-96720000D03*
%TO.P,U1,9,GPIO9*%
%TO.N,xshut2*%
X138620000Y-99260000D03*
%TO.P,U1,10,GPIO10*%
%TO.N,xshut3*%
X138620000Y-101800000D03*
%TO.P,U1,20,GPIO20*%
%TO.N,unconnected-(U1-GPIO20-Pad20)*%
X138620000Y-104340000D03*
%TO.P,U1,21,GPIO21*%
%TO.N,unconnected-(U1-GPIO21-Pad21)*%
X138620000Y-106880000D03*
%TO.P,U1,G,GND*%
%TO.N,GND*%
X123380000Y-91640000D03*
%TD*%
D16*
%TO.N,GND*%
X108000000Y-81000000D03*
X108000000Y-107000000D03*
X160000000Y-107000000D03*
X160000000Y-81000000D03*
D17*
%TO.N,xshut2*%
X141000000Y-98000000D03*
%TO.N,xshut1*%
X141002843Y-95997157D03*
%TD*%
D18*
%TO.N,boot_btn*%
X112000000Y-87935000D02*
X112065000Y-88000000D01*
X112065000Y-88000000D02*
X114000000Y-88000000D01*
X114000000Y-88000000D02*
X115000000Y-89000000D01*
X115000000Y-89000000D02*
X115000000Y-93000000D01*
X115000000Y-93000000D02*
X116000000Y-94000000D01*
X116000000Y-94000000D02*
X120000000Y-94000000D01*
X120000000Y-94000000D02*
X121000000Y-95000000D01*
X121880000Y-106880000D02*
X123380000Y-106880000D01*
X121000000Y-95000000D02*
X121000000Y-106000000D01*
X121000000Y-106000000D02*
X121880000Y-106880000D01*
%TO.N,scl*%
X138620000Y-94180000D02*
X137180000Y-94180000D01*
X137180000Y-94180000D02*
X136000000Y-93000000D01*
X136000000Y-93000000D02*
X136000000Y-83920000D01*
X136000000Y-83920000D02*
X134540000Y-82460000D01*
X145000000Y-85500000D02*
X139080000Y-85500000D01*
X139080000Y-85500000D02*
X137580000Y-84000000D01*
X137580000Y-84000000D02*
X136080000Y-84000000D01*
X136080000Y-84000000D02*
X134540000Y-82460000D01*
%TO.N,sda*%
X153000000Y-83000000D02*
X155000000Y-83000000D01*
X155000000Y-100000000D02*
X153000000Y-100000000D01*
X155000000Y-83000000D02*
X156000000Y-84000000D01*
X156000000Y-84000000D02*
X156000000Y-99000000D01*
X156000000Y-99000000D02*
X155000000Y-100000000D01*
%TO.N,scl*%
X145000000Y-102500000D02*
X141500000Y-102500000D01*
X141500000Y-102500000D02*
X140000000Y-101000000D01*
X140000000Y-101000000D02*
X140000000Y-95560000D01*
X140000000Y-95560000D02*
X138620000Y-94180000D01*
%TO.N,sda*%
X153000000Y-83000000D02*
X145000000Y-83000000D01*
%TO.N,xshut2*%
X141500000Y-97500000D02*
X141000000Y-98000000D01*
X145000000Y-97500000D02*
X141500000Y-97500000D01*
%TO.N,xshut1*%
X153000000Y-97500000D02*
X151500000Y-96000000D01*
X151500000Y-96000000D02*
X141005686Y-96000000D01*
X141005686Y-96000000D02*
X141002843Y-95997157D01*
%TO.N,VCC*%
X145000000Y-90500000D02*
X153000000Y-90500000D01*
%TO.N,scl*%
X134540000Y-82460000D02*
X132080000Y-80000000D01*
X153000000Y-102500000D02*
X145000000Y-102500000D01*
X153000000Y-85500000D02*
X145000000Y-85500000D01*
%TD*%
%TA.AperFunction,Conductor*%
%TO.N,GND*%
G36*
X162006922Y-78001280D02*
G01*
X162097266Y-78011459D01*
X162124331Y-78017636D01*
X162203540Y-78045352D01*
X162228553Y-78057398D01*
X162299606Y-78102043D01*
X162321313Y-78119355D01*
X162380644Y-78178686D01*
X162397957Y-78200395D01*
X162442600Y-78271444D01*
X162454648Y-78296462D01*
X162482362Y-78375666D01*
X162488540Y-78402735D01*
X162498720Y-78493076D01*
X162499500Y-78506961D01*
X162499500Y-109493038D01*
X162498720Y-109506923D01*
X162488540Y-109597264D01*
X162482362Y-109624333D01*
X162454648Y-109703537D01*
X162442600Y-109728555D01*
X162397957Y-109799604D01*
X162380644Y-109821313D01*
X162321313Y-109880644D01*
X162299604Y-109897957D01*
X162228555Y-109942600D01*
X162203537Y-109954648D01*
X162124333Y-109982362D01*
X162097264Y-109988540D01*
X162017075Y-109997576D01*
X162006921Y-109998720D01*
X161993038Y-109999500D01*
X142269907Y-109999500D01*
X142202868Y-109979815D01*
X142163578Y-109939297D01*
X141000000Y-108000000D01*
X139846585Y-108000000D01*
X139779546Y-107980315D01*
X139733791Y-107927511D01*
X139723847Y-107858353D01*
X139752872Y-107794797D01*
X139755355Y-107792017D01*
X139770551Y-107775510D01*
X139902255Y-107573922D01*
X139998983Y-107353405D01*
X140058095Y-107119976D01*
X140070108Y-106975000D01*
X140077980Y-106880005D01*
X140077980Y-106879994D01*
X140064272Y-106714566D01*
X140058095Y-106640024D01*
X139998983Y-106406595D01*
X139902255Y-106186078D01*
X139770551Y-105984490D01*
X139607463Y-105807329D01*
X139535432Y-105751265D01*
X139479656Y-105707853D01*
X139438843Y-105651143D01*
X139435168Y-105581370D01*
X139469800Y-105520687D01*
X139479656Y-105512147D01*
X139527382Y-105475000D01*
X139607463Y-105412671D01*
X139770551Y-105235510D01*
X139902255Y-105033922D01*
X139998983Y-104813405D01*
X140058095Y-104579976D01*
X140077980Y-104340000D01*
X140076502Y-104322169D01*
X140060463Y-104128599D01*
X140058095Y-104100024D01*
X139998983Y-103866595D01*
X139902255Y-103646078D01*
X139770551Y-103444490D01*
X139607463Y-103267329D01*
X139479656Y-103167853D01*
X139438843Y-103111143D01*
X139435168Y-103041370D01*
X139469800Y-102980687D01*
X139479656Y-102972147D01*
X139500072Y-102956255D01*
X139607463Y-102872671D01*
X139770551Y-102695510D01*
X139902255Y-102493922D01*
X139998983Y-102273405D01*
X140031325Y-102145687D01*
X140066865Y-102085532D01*
X140129285Y-102054140D01*
X140198768Y-102061478D01*
X140239212Y-102088447D01*
X141015139Y-102864374D01*
X141015149Y-102864385D01*
X141019479Y-102868715D01*
X141019480Y-102868716D01*
X141131284Y-102980520D01*
X141131286Y-102980521D01*
X141131290Y-102980524D01*
X141215007Y-103028857D01*
X141268216Y-103059577D01*
X141380019Y-103089534D01*
X141420942Y-103100500D01*
X141420943Y-103100500D01*
X143589281Y-103100500D01*
X143656320Y-103120185D01*
X143699765Y-103168205D01*
X143719947Y-103207814D01*
X143719948Y-103207815D01*
X143844890Y-103379786D01*
X143995209Y-103530105D01*
X143995214Y-103530109D01*
X144160218Y-103649991D01*
X144202884Y-103705320D01*
X144208863Y-103774934D01*
X144176258Y-103836729D01*
X144160218Y-103850627D01*
X143995540Y-103970272D01*
X143995535Y-103970276D01*
X143845276Y-104120535D01*
X143845272Y-104120540D01*
X143720379Y-104292442D01*
X143623904Y-104481782D01*
X143558242Y-104683870D01*
X143558242Y-104683873D01*
X143547769Y-104750000D01*
X144595854Y-104750000D01*
X144557370Y-104816657D01*
X144525000Y-104937465D01*
X144525000Y-105062535D01*
X144557370Y-105183343D01*
X144595854Y-105250000D01*
X143547769Y-105250000D01*
X143558242Y-105316126D01*
X143558242Y-105316129D01*
X143623904Y-105518217D01*
X143720379Y-105707557D01*
X143845272Y-105879459D01*
X143845276Y-105879464D01*
X143984143Y-106018331D01*
X144017628Y-106079654D01*
X144012644Y-106149346D01*
X143970772Y-106205279D01*
X143961559Y-106211551D01*
X143806342Y-106307289D01*
X143682289Y-106431342D01*
X143590187Y-106580663D01*
X143590186Y-106580666D01*
X143535001Y-106747203D01*
X143535001Y-106747204D01*
X143535000Y-106747204D01*
X143524500Y-106849983D01*
X143524500Y-108150001D01*
X143524501Y-108150018D01*
X143535000Y-108252796D01*
X143535001Y-108252799D01*
X143590185Y-108419331D01*
X143590186Y-108419334D01*
X143682288Y-108568656D01*
X143806344Y-108692712D01*
X143955666Y-108784814D01*
X144122203Y-108839999D01*
X144224991Y-108850500D01*
X145775008Y-108850499D01*
X145877797Y-108839999D01*
X146044334Y-108784814D01*
X146193656Y-108692712D01*
X146317712Y-108568656D01*
X146409814Y-108419334D01*
X146464999Y-108252797D01*
X146475500Y-108150009D01*
X146475499Y-106849992D01*
X146464999Y-106747203D01*
X146409814Y-106580666D01*
X146317712Y-106431344D01*
X146193656Y-106307288D01*
X146044334Y-106215186D01*
X146044332Y-106215185D01*
X146038440Y-106211551D01*
X145991716Y-106159603D01*
X145980493Y-106090641D01*
X146008337Y-106026558D01*
X146015856Y-106018330D01*
X146154728Y-105879458D01*
X146279620Y-105707557D01*
X146376095Y-105518217D01*
X146441757Y-105316129D01*
X146441757Y-105316126D01*
X146452231Y-105250000D01*
X145404146Y-105250000D01*
X145442630Y-105183343D01*
X145475000Y-105062535D01*
X145475000Y-104937465D01*
X145442630Y-104816657D01*
X145404146Y-104750000D01*
X146452231Y-104750000D01*
X146441757Y-104683873D01*
X146441757Y-104683870D01*
X146376095Y-104481782D01*
X146279620Y-104292442D01*
X146154727Y-104120540D01*
X146154723Y-104120535D01*
X146004464Y-103970276D01*
X146004459Y-103970272D01*
X145839781Y-103850627D01*
X145797115Y-103795297D01*
X145791136Y-103725684D01*
X145823741Y-103663889D01*
X145839776Y-103649994D01*
X146004792Y-103530104D01*
X146155104Y-103379792D01*
X146155106Y-103379788D01*
X146155109Y-103379786D01*
X146236810Y-103267332D01*
X146280051Y-103207816D01*
X146280349Y-103207230D01*
X146300235Y-103168205D01*
X146348209Y-103117409D01*
X146410719Y-103100500D01*
X151589281Y-103100500D01*
X151656320Y-103120185D01*
X151699765Y-103168205D01*
X151719947Y-103207814D01*
X151719948Y-103207815D01*
X151844890Y-103379786D01*
X151995209Y-103530105D01*
X151995214Y-103530109D01*
X152160218Y-103649991D01*
X152202884Y-103705320D01*
X152208863Y-103774934D01*
X152176258Y-103836729D01*
X152160218Y-103850627D01*
X151995540Y-103970272D01*
X151995535Y-103970276D01*
X151845276Y-104120535D01*
X151845272Y-104120540D01*
X151720379Y-104292442D01*
X151623904Y-104481782D01*
X151558242Y-104683870D01*
X151558242Y-104683873D01*
X151547769Y-104750000D01*
X152595854Y-104750000D01*
X152557370Y-104816657D01*
X152525000Y-104937465D01*
X152525000Y-105062535D01*
X152557370Y-105183343D01*
X152595854Y-105250000D01*
X151547769Y-105250000D01*
X151558242Y-105316126D01*
X151558242Y-105316129D01*
X151623904Y-105518217D01*
X151720379Y-105707557D01*
X151845272Y-105879459D01*
X151845276Y-105879464D01*
X151984143Y-106018331D01*
X152017628Y-106079654D01*
X152012644Y-106149346D01*
X151970772Y-106205279D01*
X151961559Y-106211551D01*
X151806342Y-106307289D01*
X151682289Y-106431342D01*
X151590187Y-106580663D01*
X151590186Y-106580666D01*
X151535001Y-106747203D01*
X151535001Y-106747204D01*
X151535000Y-106747204D01*
X151524500Y-106849983D01*
X151524500Y-108150001D01*
X151524501Y-108150018D01*
X151535000Y-108252796D01*
X151535001Y-108252799D01*
X151590185Y-108419331D01*
X151590186Y-108419334D01*
X151682288Y-108568656D01*
X151806344Y-108692712D01*
X151955666Y-108784814D01*
X152122203Y-108839999D01*
X152224991Y-108850500D01*
X153775008Y-108850499D01*
X153877797Y-108839999D01*
X154044334Y-108784814D01*
X154193656Y-108692712D01*
X154317712Y-108568656D01*
X154409814Y-108419334D01*
X154464999Y-108252797D01*
X154475500Y-108150009D01*
X154475499Y-106999998D01*
X157994390Y-106999998D01*
X157994390Y-107000001D01*
X158014804Y-107285433D01*
X158075628Y-107565037D01*
X158075630Y-107565043D01*
X158075631Y-107565046D01*
X158128485Y-107706753D01*
X158175635Y-107833166D01*
X158312770Y-108084309D01*
X158312775Y-108084317D01*
X158484254Y-108313387D01*
X158484270Y-108313405D01*
X158686594Y-108515729D01*
X158686612Y-108515745D01*
X158915682Y-108687224D01*
X158915690Y-108687229D01*
X159166833Y-108824364D01*
X159166832Y-108824364D01*
X159166836Y-108824365D01*
X159166839Y-108824367D01*
X159434954Y-108924369D01*
X159434960Y-108924370D01*
X159434962Y-108924371D01*
X159714566Y-108985195D01*
X159714568Y-108985195D01*
X159714572Y-108985196D01*
X159968220Y-109003337D01*
X159999999Y-109005610D01*
X160000000Y-109005610D01*
X160000001Y-109005610D01*
X160028595Y-109003564D01*
X160285428Y-108985196D01*
X160565046Y-108924369D01*
X160833161Y-108824367D01*
X161084315Y-108687226D01*
X161313395Y-108515739D01*
X161515739Y-108313395D01*
X161687226Y-108084315D01*
X161824367Y-107833161D01*
X161924369Y-107565046D01*
X161951663Y-107439577D01*
X161985195Y-107285433D01*
X161985195Y-107285432D01*
X161985196Y-107285428D01*
X162005610Y-107000000D01*
X161985196Y-106714572D01*
X161952122Y-106562535D01*
X161924371Y-106434962D01*
X161924370Y-106434960D01*
X161924369Y-106434954D01*
X161824367Y-106166839D01*
X161783552Y-106092093D01*
X161687229Y-105915690D01*
X161687224Y-105915682D01*
X161515745Y-105686612D01*
X161515729Y-105686594D01*
X161313405Y-105484270D01*
X161313387Y-105484254D01*
X161084317Y-105312775D01*
X161084309Y-105312770D01*
X160833166Y-105175635D01*
X160833167Y-105175635D01*
X160725915Y-105135632D01*
X160565046Y-105075631D01*
X160565043Y-105075630D01*
X160565037Y-105075628D01*
X160285433Y-105014804D01*
X160000001Y-104994390D01*
X159999999Y-104994390D01*
X159714566Y-105014804D01*
X159434962Y-105075628D01*
X159166833Y-105175635D01*
X158915690Y-105312770D01*
X158915682Y-105312775D01*
X158686612Y-105484254D01*
X158686594Y-105484270D01*
X158484270Y-105686594D01*
X158484254Y-105686612D01*
X158312775Y-105915682D01*
X158312770Y-105915690D01*
X158175635Y-106166833D01*
X158075628Y-106434962D01*
X158014804Y-106714566D01*
X157994390Y-106999998D01*
X154475499Y-106999998D01*
X154475499Y-106849992D01*
X154464999Y-106747203D01*
X154409814Y-106580666D01*
X154317712Y-106431344D01*
X154193656Y-106307288D01*
X154044334Y-106215186D01*
X154044332Y-106215185D01*
X154038440Y-106211551D01*
X153991716Y-106159603D01*
X153980493Y-106090641D01*
X154008337Y-106026558D01*
X154015856Y-106018330D01*
X154154728Y-105879458D01*
X154279620Y-105707557D01*
X154376095Y-105518217D01*
X154441757Y-105316129D01*
X154441757Y-105316126D01*
X154452231Y-105250000D01*
X153404146Y-105250000D01*
X153442630Y-105183343D01*
X153475000Y-105062535D01*
X153475000Y-104937465D01*
X153442630Y-104816657D01*
X153404146Y-104750000D01*
X154452231Y-104750000D01*
X154441757Y-104683873D01*
X154441757Y-104683870D01*
X154376095Y-104481782D01*
X154279620Y-104292442D01*
X154154727Y-104120540D01*
X154154723Y-104120535D01*
X154004464Y-103970276D01*
X154004459Y-103970272D01*
X153839781Y-103850627D01*
X153797115Y-103795297D01*
X153791136Y-103725684D01*
X153823741Y-103663889D01*
X153839776Y-103649994D01*
X154004792Y-103530104D01*
X154155104Y-103379792D01*
X154155106Y-103379788D01*
X154155109Y-103379786D01*
X154280048Y-103207820D01*
X154280047Y-103207820D01*
X154280051Y-103207816D01*
X154376557Y-103018412D01*
X154442246Y-102816243D01*
X154475500Y-102606287D01*
X154475500Y-102393713D01*
X154442246Y-102183757D01*
X154376557Y-101981588D01*
X154280051Y-101792184D01*
X154280049Y-101792181D01*
X154280048Y-101792179D01*
X154155109Y-101620213D01*
X154004792Y-101469896D01*
X153899934Y-101393713D01*
X153840204Y-101350316D01*
X153797540Y-101294989D01*
X153791561Y-101225376D01*
X153824166Y-101163580D01*
X153840199Y-101149686D01*
X154004792Y-101030104D01*
X154155104Y-100879792D01*
X154155106Y-100879788D01*
X154155109Y-100879786D01*
X154218758Y-100792179D01*
X154280051Y-100707816D01*
X154284083Y-100699903D01*
X154300235Y-100668205D01*
X154348209Y-100617409D01*
X154410719Y-100600500D01*
X154913331Y-100600500D01*
X154913347Y-100600501D01*
X154920943Y-100600501D01*
X155079054Y-100600501D01*
X155079057Y-100600501D01*
X155231785Y-100559577D01*
X155281904Y-100530639D01*
X155368716Y-100480520D01*
X155480520Y-100368716D01*
X155480520Y-100368714D01*
X155490728Y-100358507D01*
X155490729Y-100358504D01*
X156480520Y-99368716D01*
X156559577Y-99231784D01*
X156600501Y-99079057D01*
X156600501Y-98920942D01*
X156600501Y-98913347D01*
X156600500Y-98913329D01*
X156600500Y-84089060D01*
X156600501Y-84089047D01*
X156600501Y-83920944D01*
X156589474Y-83879792D01*
X156559577Y-83768216D01*
X156524708Y-83707820D01*
X156480524Y-83631290D01*
X156480518Y-83631282D01*
X155487590Y-82638355D01*
X155487588Y-82638352D01*
X155368717Y-82519481D01*
X155368716Y-82519480D01*
X155281904Y-82469360D01*
X155281904Y-82469359D01*
X155281900Y-82469358D01*
X155231785Y-82440423D01*
X155079057Y-82399499D01*
X154920943Y-82399499D01*
X154913347Y-82399499D01*
X154913331Y-82399500D01*
X154410719Y-82399500D01*
X154343680Y-82379815D01*
X154300235Y-82331795D01*
X154280052Y-82292185D01*
X154280051Y-82292184D01*
X154155109Y-82120213D01*
X154004792Y-81969896D01*
X153940820Y-81923418D01*
X153840204Y-81850316D01*
X153797540Y-81794989D01*
X153791561Y-81725376D01*
X153824166Y-81663580D01*
X153840199Y-81649686D01*
X154004792Y-81530104D01*
X154155104Y-81379792D01*
X154155106Y-81379788D01*
X154155109Y-81379786D01*
X154280048Y-81207820D01*
X154280047Y-81207820D01*
X154280051Y-81207816D01*
X154376557Y-81018412D01*
X154382540Y-80999998D01*
X157994390Y-80999998D01*
X157994390Y-81000001D01*
X158014804Y-81285433D01*
X158075628Y-81565037D01*
X158075630Y-81565043D01*
X158075631Y-81565046D01*
X158153800Y-81774625D01*
X158175635Y-81833166D01*
X158312770Y-82084309D01*
X158312775Y-82084317D01*
X158484254Y-82313387D01*
X158484270Y-82313405D01*
X158686594Y-82515729D01*
X158686612Y-82515745D01*
X158915682Y-82687224D01*
X158915690Y-82687229D01*
X159166833Y-82824364D01*
X159166832Y-82824364D01*
X159166836Y-82824365D01*
X159166839Y-82824367D01*
X159434954Y-82924369D01*
X159434960Y-82924370D01*
X159434962Y-82924371D01*
X159714566Y-82985195D01*
X159714568Y-82985195D01*
X159714572Y-82985196D01*
X159968220Y-83003337D01*
X159999999Y-83005610D01*
X160000000Y-83005610D01*
X160000001Y-83005610D01*
X160028595Y-83003564D01*
X160285428Y-82985196D01*
X160565046Y-82924369D01*
X160833161Y-82824367D01*
X161084315Y-82687226D01*
X161313395Y-82515739D01*
X161515739Y-82313395D01*
X161687226Y-82084315D01*
X161824367Y-81833161D01*
X161924369Y-81565046D01*
X161969918Y-81355659D01*
X161985195Y-81285433D01*
X161985195Y-81285432D01*
X161985196Y-81285428D01*
X162005610Y-81000000D01*
X161985196Y-80714572D01*
X161977203Y-80677830D01*
X161924371Y-80434962D01*
X161924370Y-80434960D01*
X161924369Y-80434954D01*
X161824367Y-80166839D01*
X161744025Y-80019705D01*
X161687229Y-79915690D01*
X161687224Y-79915682D01*
X161515745Y-79686612D01*
X161515729Y-79686594D01*
X161313405Y-79484270D01*
X161313387Y-79484254D01*
X161084317Y-79312775D01*
X161084309Y-79312770D01*
X160833166Y-79175635D01*
X160833167Y-79175635D01*
X160707053Y-79128597D01*
X160565046Y-79075631D01*
X160565043Y-79075630D01*
X160565037Y-79075628D01*
X160285433Y-79014804D01*
X160000001Y-78994390D01*
X159999999Y-78994390D01*
X159714566Y-79014804D01*
X159434962Y-79075628D01*
X159166833Y-79175635D01*
X158915690Y-79312770D01*
X158915682Y-79312775D01*
X158686612Y-79484254D01*
X158686594Y-79484270D01*
X158484270Y-79686594D01*
X158484254Y-79686612D01*
X158312775Y-79915682D01*
X158312770Y-79915690D01*
X158175635Y-80166833D01*
X158075628Y-80434962D01*
X158014804Y-80714566D01*
X157994390Y-80999998D01*
X154382540Y-80999998D01*
X154442246Y-80816243D01*
X154475500Y-80606287D01*
X154475500Y-80393713D01*
X154442246Y-80183757D01*
X154376557Y-79981588D01*
X154280051Y-79792184D01*
X154280049Y-79792181D01*
X154280048Y-79792179D01*
X154155109Y-79620213D01*
X154004786Y-79469890D01*
X153832820Y-79344951D01*
X153643414Y-79248444D01*
X153643413Y-79248443D01*
X153643412Y-79248443D01*
X153441243Y-79182754D01*
X153441241Y-79182753D01*
X153441240Y-79182753D01*
X153279957Y-79157208D01*
X153231287Y-79149500D01*
X152768713Y-79149500D01*
X152720042Y-79157208D01*
X152558760Y-79182753D01*
X152356585Y-79248444D01*
X152167179Y-79344951D01*
X151995213Y-79469890D01*
X151844890Y-79620213D01*
X151719951Y-79792179D01*
X151623444Y-79981585D01*
X151557753Y-80183760D01*
X151556291Y-80192993D01*
X151524500Y-80393713D01*
X151524500Y-80606287D01*
X151557754Y-80816243D01*
X151586461Y-80904595D01*
X151623444Y-81018414D01*
X151719951Y-81207820D01*
X151844890Y-81379786D01*
X151995209Y-81530105D01*
X151995214Y-81530109D01*
X152159793Y-81649682D01*
X152202459Y-81705011D01*
X152208438Y-81774625D01*
X152175833Y-81836420D01*
X152159793Y-81850318D01*
X151995214Y-81969890D01*
X151995209Y-81969894D01*
X151844890Y-82120213D01*
X151719948Y-82292184D01*
X151719947Y-82292185D01*
X151699765Y-82331795D01*
X151651791Y-82382591D01*
X151589281Y-82399500D01*
X146410719Y-82399500D01*
X146343680Y-82379815D01*
X146300235Y-82331795D01*
X146280052Y-82292185D01*
X146280051Y-82292184D01*
X146155109Y-82120213D01*
X146004792Y-81969896D01*
X145940820Y-81923418D01*
X145840204Y-81850316D01*
X145797540Y-81794989D01*
X145791561Y-81725376D01*
X145824166Y-81663580D01*
X145840199Y-81649686D01*
X146004792Y-81530104D01*
X146155104Y-81379792D01*
X146155106Y-81379788D01*
X146155109Y-81379786D01*
X146280048Y-81207820D01*
X146280047Y-81207820D01*
X146280051Y-81207816D01*
X146376557Y-81018412D01*
X146442246Y-80816243D01*
X146475500Y-80606287D01*
X146475500Y-80393713D01*
X146442246Y-80183757D01*
X146376557Y-79981588D01*
X146280051Y-79792184D01*
X146280049Y-79792181D01*
X146280048Y-79792179D01*
X146155109Y-79620213D01*
X146004786Y-79469890D01*
X145832820Y-79344951D01*
X145643414Y-79248444D01*
X145643413Y-79248443D01*
X145643412Y-79248443D01*
X145441243Y-79182754D01*
X145441241Y-79182753D01*
X145441240Y-79182753D01*
X145279957Y-79157208D01*
X145231287Y-79149500D01*
X144768713Y-79149500D01*
X144720042Y-79157208D01*
X144558760Y-79182753D01*
X144356585Y-79248444D01*
X144167179Y-79344951D01*
X143995213Y-79469890D01*
X143844890Y-79620213D01*
X143719951Y-79792179D01*
X143623444Y-79981585D01*
X143557753Y-80183760D01*
X143556291Y-80192993D01*
X143524500Y-80393713D01*
X143524500Y-80606287D01*
X143557754Y-80816243D01*
X143586461Y-80904595D01*
X143623444Y-81018414D01*
X143719951Y-81207820D01*
X143844890Y-81379786D01*
X143995209Y-81530105D01*
X143995214Y-81530109D01*
X144159793Y-81649682D01*
X144202459Y-81705011D01*
X144208438Y-81774625D01*
X144175833Y-81836420D01*
X144159793Y-81850318D01*
X143995214Y-81969890D01*
X143995209Y-81969894D01*
X143844890Y-82120213D01*
X143719951Y-82292179D01*
X143623444Y-82481585D01*
X143557753Y-82683760D01*
X143524500Y-82893713D01*
X143524500Y-83106287D01*
X143557754Y-83316243D01*
X143605137Y-83462073D01*
X143623444Y-83518414D01*
X143719951Y-83707820D01*
X143844890Y-83879786D01*
X143995209Y-84030105D01*
X143995214Y-84030109D01*
X144159793Y-84149682D01*
X144202459Y-84205011D01*
X144208438Y-84274625D01*
X144175833Y-84336420D01*
X144159793Y-84350318D01*
X143995214Y-84469890D01*
X143995209Y-84469894D01*
X143844890Y-84620213D01*
X143719948Y-84792184D01*
X143719947Y-84792185D01*
X143699765Y-84831795D01*
X143651791Y-84882591D01*
X143589281Y-84899500D01*
X139380097Y-84899500D01*
X139313058Y-84879815D01*
X139292416Y-84863181D01*
X138067590Y-83638355D01*
X138067588Y-83638352D01*
X137948717Y-83519481D01*
X137948716Y-83519480D01*
X137849283Y-83462073D01*
X137849282Y-83462072D01*
X137811783Y-83440422D01*
X137755881Y-83425443D01*
X137659057Y-83399499D01*
X137500943Y-83399499D01*
X137493347Y-83399499D01*
X137493331Y-83399500D01*
X136380098Y-83399500D01*
X136313059Y-83379815D01*
X136292417Y-83363181D01*
X134908716Y-81979481D01*
X134493666Y-81564431D01*
X134460181Y-81503108D01*
X134465165Y-81433416D01*
X134507037Y-81377483D01*
X134572501Y-81353066D01*
X134592144Y-81353221D01*
X134620000Y-81355659D01*
X134855408Y-81335063D01*
X135083663Y-81273903D01*
X135297830Y-81174035D01*
X135491401Y-81038495D01*
X135658495Y-80871401D01*
X135794035Y-80677830D01*
X135893903Y-80463663D01*
X135955063Y-80235408D01*
X135975659Y-80000000D01*
X135955063Y-79764592D01*
X135893903Y-79536337D01*
X135794035Y-79322171D01*
X135788425Y-79314158D01*
X135658494Y-79128597D01*
X135491402Y-78961506D01*
X135491395Y-78961501D01*
X135297834Y-78825967D01*
X135297830Y-78825965D01*
X135226727Y-78792809D01*
X135083663Y-78726097D01*
X135083659Y-78726096D01*
X135083655Y-78726094D01*
X134855413Y-78664938D01*
X134855403Y-78664936D01*
X134620001Y-78644341D01*
X134619999Y-78644341D01*
X134384596Y-78664936D01*
X134384586Y-78664938D01*
X134156344Y-78726094D01*
X134156335Y-78726098D01*
X133942171Y-78825964D01*
X133942169Y-78825965D01*
X133748597Y-78961505D01*
X133581505Y-79128597D01*
X133451575Y-79314158D01*
X133396998Y-79357783D01*
X133327500Y-79364977D01*
X133265145Y-79333454D01*
X133248425Y-79314158D01*
X133118494Y-79128597D01*
X132951402Y-78961506D01*
X132951395Y-78961501D01*
X132757834Y-78825967D01*
X132757830Y-78825965D01*
X132686727Y-78792809D01*
X132543663Y-78726097D01*
X132543659Y-78726096D01*
X132543655Y-78726094D01*
X132315413Y-78664938D01*
X132315403Y-78664936D01*
X132080001Y-78644341D01*
X132079999Y-78644341D01*
X131844596Y-78664936D01*
X131844586Y-78664938D01*
X131616344Y-78726094D01*
X131616335Y-78726098D01*
X131402171Y-78825964D01*
X131402169Y-78825965D01*
X131208597Y-78961505D01*
X131041505Y-79128597D01*
X130911575Y-79314158D01*
X130856998Y-79357783D01*
X130787500Y-79364977D01*
X130725145Y-79333454D01*
X130708425Y-79314158D01*
X130578494Y-79128597D01*
X130411402Y-78961506D01*
X130411395Y-78961501D01*
X130217834Y-78825967D01*
X130217830Y-78825965D01*
X130146727Y-78792809D01*
X130003663Y-78726097D01*
X130003659Y-78726096D01*
X130003655Y-78726094D01*
X129775413Y-78664938D01*
X129775403Y-78664936D01*
X129540001Y-78644341D01*
X129539999Y-78644341D01*
X129304596Y-78664936D01*
X129304586Y-78664938D01*
X129076344Y-78726094D01*
X129076335Y-78726098D01*
X128862171Y-78825964D01*
X128862169Y-78825965D01*
X128668600Y-78961503D01*
X128546284Y-79083819D01*
X128484961Y-79117303D01*
X128415269Y-79112319D01*
X128359336Y-79070447D01*
X128342421Y-79039470D01*
X128293354Y-78907913D01*
X128293350Y-78907906D01*
X128207190Y-78792812D01*
X128207187Y-78792809D01*
X128092093Y-78706649D01*
X128092086Y-78706645D01*
X127957379Y-78656403D01*
X127957372Y-78656401D01*
X127897844Y-78650000D01*
X127250000Y-78650000D01*
X127250000Y-79566988D01*
X127192993Y-79534075D01*
X127065826Y-79500000D01*
X126934174Y-79500000D01*
X126807007Y-79534075D01*
X126750000Y-79566988D01*
X126750000Y-78650000D01*
X126102155Y-78650000D01*
X126042627Y-78656401D01*
X126042620Y-78656403D01*
X125907913Y-78706645D01*
X125907906Y-78706649D01*
X125792812Y-78792809D01*
X125792809Y-78792812D01*
X125706649Y-78907906D01*
X125706645Y-78907913D01*
X125656403Y-79042620D01*
X125656401Y-79042627D01*
X125650000Y-79102155D01*
X125650000Y-79750000D01*
X126566988Y-79750000D01*
X126534075Y-79807007D01*
X126500000Y-79934174D01*
X126500000Y-80065826D01*
X126534075Y-80192993D01*
X126566988Y-80250000D01*
X125650000Y-80250000D01*
X125650000Y-80897844D01*
X125656401Y-80957372D01*
X125656403Y-80957379D01*
X125706645Y-81092086D01*
X125706649Y-81092093D01*
X125792809Y-81207187D01*
X125792812Y-81207190D01*
X125907906Y-81293350D01*
X125907913Y-81293354D01*
X126042620Y-81343596D01*
X126042627Y-81343598D01*
X126102155Y-81349999D01*
X126102172Y-81350000D01*
X126750000Y-81350000D01*
X126750000Y-80433012D01*
X126807007Y-80465925D01*
X126934174Y-80500000D01*
X127065826Y-80500000D01*
X127192993Y-80465925D01*
X127250000Y-80433012D01*
X127250000Y-81350000D01*
X127897828Y-81350000D01*
X127897844Y-81349999D01*
X127957372Y-81343598D01*
X127957379Y-81343596D01*
X128092086Y-81293354D01*
X128092093Y-81293350D01*
X128207187Y-81207190D01*
X128207190Y-81207187D01*
X128293350Y-81092093D01*
X128293354Y-81092086D01*
X128342422Y-80960529D01*
X128384293Y-80904595D01*
X128449757Y-80880178D01*
X128518030Y-80895030D01*
X128546285Y-80916181D01*
X128668599Y-81038495D01*
X128745135Y-81092086D01*
X128862165Y-81174032D01*
X128862167Y-81174033D01*
X128862170Y-81174035D01*
X129076337Y-81273903D01*
X129304592Y-81335063D01*
X129475319Y-81350000D01*
X129539999Y-81355659D01*
X129540000Y-81355659D01*
X129540001Y-81355659D01*
X129604681Y-81350000D01*
X129775408Y-81335063D01*
X130003663Y-81273903D01*
X130217830Y-81174035D01*
X130411401Y-81038495D01*
X130578495Y-80871401D01*
X130708425Y-80685842D01*
X130763002Y-80642217D01*
X130832500Y-80635023D01*
X130894855Y-80666546D01*
X130911575Y-80685842D01*
X131041500Y-80871395D01*
X131041505Y-80871401D01*
X131208599Y-81038495D01*
X131285135Y-81092086D01*
X131402165Y-81174032D01*
X131402167Y-81174033D01*
X131402170Y-81174035D01*
X131616337Y-81273903D01*
X131844592Y-81335063D01*
X132015319Y-81350000D01*
X132079999Y-81355659D01*
X132080000Y-81355659D01*
X132080001Y-81355659D01*
X132144681Y-81350000D01*
X132315408Y-81335063D01*
X132443757Y-81300672D01*
X132513606Y-81302335D01*
X132563531Y-81332766D01*
X135363181Y-84132416D01*
X135396666Y-84193739D01*
X135399500Y-84220097D01*
X135399500Y-92913330D01*
X135399499Y-92913348D01*
X135399499Y-93079054D01*
X135399498Y-93079054D01*
X135440423Y-93231785D01*
X135469358Y-93281900D01*
X135469359Y-93281904D01*
X135469360Y-93281904D01*
X135516284Y-93363181D01*
X135519479Y-93368714D01*
X135519481Y-93368717D01*
X135638349Y-93487585D01*
X135638355Y-93487590D01*
X136695139Y-94544374D01*
X136695149Y-94544385D01*
X136699479Y-94548715D01*
X136699480Y-94548716D01*
X136811284Y-94660520D01*
X136898095Y-94710639D01*
X136898097Y-94710641D01*
X136936151Y-94732611D01*
X136948215Y-94739577D01*
X137100943Y-94780501D01*
X137100946Y-94780501D01*
X137215753Y-94780501D01*
X137282792Y-94800186D01*
X137328547Y-94852990D01*
X137329308Y-94854689D01*
X137337745Y-94873922D01*
X137469449Y-95075510D01*
X137632537Y-95252671D01*
X137693470Y-95300097D01*
X137760344Y-95352147D01*
X137801157Y-95408857D01*
X137804831Y-95478630D01*
X137770199Y-95539313D01*
X137760344Y-95547853D01*
X137632539Y-95647327D01*
X137632534Y-95647332D01*
X137469449Y-95824490D01*
X137337743Y-96026081D01*
X137241017Y-96246594D01*
X137181904Y-96480027D01*
X137162020Y-96719994D01*
X137162020Y-96720005D01*
X137181904Y-96959972D01*
X137241017Y-97193405D01*
X137290236Y-97305614D01*
X137337745Y-97413922D01*
X137469449Y-97615510D01*
X137632537Y-97792671D01*
X137722608Y-97862776D01*
X137760344Y-97892147D01*
X137801157Y-97948857D01*
X137804831Y-98018630D01*
X137770199Y-98079313D01*
X137760344Y-98087853D01*
X137632539Y-98187327D01*
X137632534Y-98187332D01*
X137469449Y-98364490D01*
X137337743Y-98566081D01*
X137241017Y-98786594D01*
X137181904Y-99020027D01*
X137162020Y-99259994D01*
X137162020Y-99260005D01*
X137181904Y-99499972D01*
X137181904Y-99499975D01*
X137181905Y-99499976D01*
X137241017Y-99733405D01*
X137337745Y-99953922D01*
X137469449Y-100155510D01*
X137632537Y-100332671D01*
X137678844Y-100368713D01*
X137760344Y-100432147D01*
X137801157Y-100488857D01*
X137804831Y-100558630D01*
X137770199Y-100619313D01*
X137760344Y-100627853D01*
X137632539Y-100727327D01*
X137632534Y-100727332D01*
X137469449Y-100904490D01*
X137337743Y-101106081D01*
X137241017Y-101326594D01*
X137181904Y-101560027D01*
X137162020Y-101799994D01*
X137162020Y-101800005D01*
X137181904Y-102039972D01*
X137181904Y-102039975D01*
X137181905Y-102039976D01*
X137241017Y-102273405D01*
X137337745Y-102493922D01*
X137469449Y-102695510D01*
X137632537Y-102872671D01*
X137722608Y-102942776D01*
X137760344Y-102972147D01*
X137801157Y-103028857D01*
X137804831Y-103098630D01*
X137770199Y-103159313D01*
X137760344Y-103167853D01*
X137632539Y-103267327D01*
X137632534Y-103267332D01*
X137469449Y-103444490D01*
X137337743Y-103646081D01*
X137241017Y-103866594D01*
X137181904Y-104100027D01*
X137162020Y-104339994D01*
X137162020Y-104340005D01*
X137181904Y-104579972D01*
X137241017Y-104813405D01*
X137336070Y-105030105D01*
X137337745Y-105033922D01*
X137469449Y-105235510D01*
X137632537Y-105412671D01*
X137698042Y-105463655D01*
X137760344Y-105512147D01*
X137801157Y-105568857D01*
X137804831Y-105638630D01*
X137770199Y-105699313D01*
X137760344Y-105707853D01*
X137632539Y-105807327D01*
X137632534Y-105807332D01*
X137469449Y-105984490D01*
X137337743Y-106186081D01*
X137241017Y-106406594D01*
X137181904Y-106640027D01*
X137162020Y-106879994D01*
X137162020Y-106880005D01*
X137181904Y-107119972D01*
X137181904Y-107119975D01*
X137181905Y-107119976D01*
X137214506Y-107248716D01*
X137241017Y-107353405D01*
X137333851Y-107565046D01*
X137337745Y-107573922D01*
X137469449Y-107775510D01*
X137484645Y-107792017D01*
X137515567Y-107854672D01*
X137507707Y-107924098D01*
X137463560Y-107978253D01*
X137397142Y-107999944D01*
X137393415Y-108000000D01*
X124606585Y-108000000D01*
X124539546Y-107980315D01*
X124493791Y-107927511D01*
X124483847Y-107858353D01*
X124512872Y-107794797D01*
X124515355Y-107792017D01*
X124530551Y-107775510D01*
X124662255Y-107573922D01*
X124758983Y-107353405D01*
X124818095Y-107119976D01*
X124830108Y-106975000D01*
X124837980Y-106880005D01*
X124837980Y-106879994D01*
X124824272Y-106714566D01*
X124818095Y-106640024D01*
X124758983Y-106406595D01*
X124662255Y-106186078D01*
X124530551Y-105984490D01*
X124367463Y-105807329D01*
X124295432Y-105751265D01*
X124239656Y-105707853D01*
X124198843Y-105651143D01*
X124195168Y-105581370D01*
X124229800Y-105520687D01*
X124239656Y-105512147D01*
X124287382Y-105475000D01*
X124367463Y-105412671D01*
X124530551Y-105235510D01*
X124662255Y-105033922D01*
X124758983Y-104813405D01*
X124818095Y-104579976D01*
X124837980Y-104340000D01*
X124836502Y-104322169D01*
X124820463Y-104128599D01*
X124818272Y-104102155D01*
X129110000Y-104102155D01*
X129110000Y-104750000D01*
X130026988Y-104750000D01*
X129994075Y-104807007D01*
X129960000Y-104934174D01*
X129960000Y-105065826D01*
X129994075Y-105192993D01*
X130026988Y-105250000D01*
X129110000Y-105250000D01*
X129110000Y-105897844D01*
X129116401Y-105957372D01*
X129116403Y-105957379D01*
X129166645Y-106092086D01*
X129166649Y-106092093D01*
X129252809Y-106207187D01*
X129252812Y-106207190D01*
X129367906Y-106293350D01*
X129367913Y-106293354D01*
X129502620Y-106343596D01*
X129502627Y-106343598D01*
X129562155Y-106349999D01*
X129562172Y-106350000D01*
X130210000Y-106350000D01*
X130210000Y-105433012D01*
X130267007Y-105465925D01*
X130394174Y-105500000D01*
X130525826Y-105500000D01*
X130652993Y-105465925D01*
X130710000Y-105433012D01*
X130710000Y-106350000D01*
X131357828Y-106350000D01*
X131357844Y-106349999D01*
X131417372Y-106343598D01*
X131417379Y-106343596D01*
X131552086Y-106293354D01*
X131552093Y-106293350D01*
X131667187Y-106207190D01*
X131667190Y-106207187D01*
X131753350Y-106092093D01*
X131753354Y-106092086D01*
X131802422Y-105960529D01*
X131844293Y-105904595D01*
X131909757Y-105880178D01*
X131978030Y-105895030D01*
X132006285Y-105916181D01*
X132128599Y-106038495D01*
X132187380Y-106079654D01*
X132322165Y-106174032D01*
X132322167Y-106174033D01*
X132322170Y-106174035D01*
X132536337Y-106273903D01*
X132764592Y-106335063D01*
X132935319Y-106350000D01*
X132999999Y-106355659D01*
X133000000Y-106355659D01*
X133000001Y-106355659D01*
X133064681Y-106350000D01*
X133235408Y-106335063D01*
X133463663Y-106273903D01*
X133677830Y-106174035D01*
X133871401Y-106038495D01*
X134038495Y-105871401D01*
X134174035Y-105677830D01*
X134273903Y-105463663D01*
X134335063Y-105235408D01*
X134355659Y-105000000D01*
X134335063Y-104764592D01*
X134273903Y-104536337D01*
X134174035Y-104322171D01*
X134169885Y-104316243D01*
X134038494Y-104128597D01*
X133871402Y-103961506D01*
X133871395Y-103961501D01*
X133677834Y-103825967D01*
X133677830Y-103825965D01*
X133606727Y-103792809D01*
X133463663Y-103726097D01*
X133463659Y-103726096D01*
X133463655Y-103726094D01*
X133235413Y-103664938D01*
X133235403Y-103664936D01*
X133000001Y-103644341D01*
X132999999Y-103644341D01*
X132764596Y-103664936D01*
X132764586Y-103664938D01*
X132536344Y-103726094D01*
X132536335Y-103726098D01*
X132322171Y-103825964D01*
X132322169Y-103825965D01*
X132128600Y-103961503D01*
X132006284Y-104083819D01*
X131944961Y-104117303D01*
X131875269Y-104112319D01*
X131819336Y-104070447D01*
X131802421Y-104039470D01*
X131753354Y-103907913D01*
X131753350Y-103907906D01*
X131667190Y-103792812D01*
X131667187Y-103792809D01*
X131552093Y-103706649D01*
X131552086Y-103706645D01*
X131417379Y-103656403D01*
X131417372Y-103656401D01*
X131357844Y-103650000D01*
X130710000Y-103650000D01*
X130710000Y-104566988D01*
X130652993Y-104534075D01*
X130525826Y-104500000D01*
X130394174Y-104500000D01*
X130267007Y-104534075D01*
X130210000Y-104566988D01*
X130210000Y-103650000D01*
X129562155Y-103650000D01*
X129502627Y-103656401D01*
X129502620Y-103656403D01*
X129367913Y-103706645D01*
X129367906Y-103706649D01*
X129252812Y-103792809D01*
X129252809Y-103792812D01*
X129166649Y-103907906D01*
X129166645Y-103907913D01*
X129116403Y-104042620D01*
X129116401Y-104042627D01*
X129110000Y-104102155D01*
X124818272Y-104102155D01*
X124818095Y-104100024D01*
X124758983Y-103866595D01*
X124662255Y-103646078D01*
X124530551Y-103444490D01*
X124367463Y-103267329D01*
X124239656Y-103167853D01*
X124198843Y-103111143D01*
X124195168Y-103041370D01*
X124229800Y-102980687D01*
X124239656Y-102972147D01*
X124260072Y-102956255D01*
X124367463Y-102872671D01*
X124530551Y-102695510D01*
X124662255Y-102493922D01*
X124758983Y-102273405D01*
X124818095Y-102039976D01*
X124832745Y-101863181D01*
X124837980Y-101800005D01*
X124837980Y-101799994D01*
X124818095Y-101560027D01*
X124818095Y-101560024D01*
X124758983Y-101326595D01*
X124662255Y-101106078D01*
X124530551Y-100904490D01*
X124367463Y-100727329D01*
X124239656Y-100627853D01*
X124198843Y-100571143D01*
X124195168Y-100501370D01*
X124229800Y-100440687D01*
X124239656Y-100432147D01*
X124269282Y-100409088D01*
X124367463Y-100332671D01*
X124530551Y-100155510D01*
X124662255Y-99953922D01*
X124758983Y-99733405D01*
X124818095Y-99499976D01*
X124828052Y-99379815D01*
X124837980Y-99260005D01*
X124837980Y-99259994D01*
X124818095Y-99020027D01*
X124818095Y-99020024D01*
X124758983Y-98786595D01*
X124662255Y-98566078D01*
X124530551Y-98364490D01*
X124367463Y-98187329D01*
X124281196Y-98120185D01*
X124239656Y-98087853D01*
X124198843Y-98031143D01*
X124195168Y-97961370D01*
X124229800Y-97900687D01*
X124239656Y-97892147D01*
X124260072Y-97876255D01*
X124367463Y-97792671D01*
X124530551Y-97615510D01*
X124662255Y-97413922D01*
X124758983Y-97193405D01*
X124818095Y-96959976D01*
X124830485Y-96810449D01*
X124837980Y-96720005D01*
X124837980Y-96719994D01*
X124818095Y-96480027D01*
X124818095Y-96480024D01*
X124758983Y-96246595D01*
X124662255Y-96026078D01*
X124530551Y-95824490D01*
X124367463Y-95647329D01*
X124239656Y-95547853D01*
X124198843Y-95491143D01*
X124195168Y-95421370D01*
X124229800Y-95360687D01*
X124239656Y-95352147D01*
X124270402Y-95328216D01*
X124367463Y-95252671D01*
X124530551Y-95075510D01*
X124662255Y-94873922D01*
X124758983Y-94653405D01*
X124818095Y-94419976D01*
X124837980Y-94180000D01*
X124818095Y-93940024D01*
X124758983Y-93706595D01*
X124662255Y-93486078D01*
X124530551Y-93284490D01*
X124367463Y-93107329D01*
X124239246Y-93007534D01*
X124198435Y-92950825D01*
X124194760Y-92881052D01*
X124215254Y-92845141D01*
X124216209Y-92829761D01*
X123616008Y-92229560D01*
X123680785Y-92202729D01*
X123784789Y-92133236D01*
X123873236Y-92044789D01*
X123942729Y-91940785D01*
X123969560Y-91876008D01*
X124569116Y-92475564D01*
X124661811Y-92333686D01*
X124661816Y-92333678D01*
X124758508Y-92113240D01*
X124817600Y-91879889D01*
X124837478Y-91640005D01*
X124837478Y-91639994D01*
X124817600Y-91400110D01*
X124758508Y-91166759D01*
X124661813Y-90946315D01*
X124569116Y-90804434D01*
X123969560Y-91403990D01*
X123942729Y-91339215D01*
X123873236Y-91235211D01*
X123784789Y-91146764D01*
X123680785Y-91077271D01*
X123616006Y-91050438D01*
X124216208Y-90450237D01*
X124215251Y-90434824D01*
X124198436Y-90411459D01*
X124194761Y-90341686D01*
X124229392Y-90281003D01*
X124239231Y-90272477D01*
X124367463Y-90172671D01*
X124530551Y-89995510D01*
X124662255Y-89793922D01*
X124758983Y-89573405D01*
X124818095Y-89339976D01*
X124828956Y-89208903D01*
X124837980Y-89100005D01*
X124837980Y-89099994D01*
X124818095Y-88860027D01*
X124818095Y-88860024D01*
X124758983Y-88626595D01*
X124662255Y-88406078D01*
X124530551Y-88204490D01*
X124367463Y-88027329D01*
X124233358Y-87922951D01*
X124177441Y-87879429D01*
X123965665Y-87764821D01*
X123965656Y-87764818D01*
X123737916Y-87686634D01*
X123559777Y-87656908D01*
X123500399Y-87647000D01*
X123259601Y-87647000D01*
X123212098Y-87654926D01*
X123022083Y-87686634D01*
X122794343Y-87764818D01*
X122794334Y-87764821D01*
X122582558Y-87879429D01*
X122478345Y-87960542D01*
X122392537Y-88027329D01*
X122392534Y-88027331D01*
X122392534Y-88027332D01*
X122229449Y-88204490D01*
X122097743Y-88406081D01*
X122001017Y-88626594D01*
X121941904Y-88860027D01*
X121922020Y-89099994D01*
X121922020Y-89100005D01*
X121941904Y-89339972D01*
X122001017Y-89573405D01*
X122077252Y-89747204D01*
X122097745Y-89793922D01*
X122229449Y-89995510D01*
X122392537Y-90172671D01*
X122520750Y-90272463D01*
X122561562Y-90329172D01*
X122565237Y-90398945D01*
X122544745Y-90434852D01*
X122543789Y-90450237D01*
X123143991Y-91050439D01*
X123079215Y-91077271D01*
X122975211Y-91146764D01*
X122886764Y-91235211D01*
X122817271Y-91339215D01*
X122790439Y-91403991D01*
X122190882Y-90804434D01*
X122098184Y-90946320D01*
X122001491Y-91166759D01*
X121942399Y-91400110D01*
X121922522Y-91639994D01*
X121922522Y-91640005D01*
X121942399Y-91879889D01*
X122001491Y-92113240D01*
X122098184Y-92333679D01*
X122190882Y-92475564D01*
X122790439Y-91876007D01*
X122817271Y-91940785D01*
X122886764Y-92044789D01*
X122975211Y-92133236D01*
X123079215Y-92202729D01*
X123143991Y-92229560D01*
X122543790Y-92829761D01*
X122544747Y-92845174D01*
X122561563Y-92868540D01*
X122565238Y-92938313D01*
X122530607Y-92998996D01*
X122520751Y-93007536D01*
X122392539Y-93107327D01*
X122392534Y-93107332D01*
X122229449Y-93284490D01*
X122097743Y-93486081D01*
X122001017Y-93706594D01*
X121941904Y-93940027D01*
X121922020Y-94179994D01*
X121922020Y-94180005D01*
X121941904Y-94419972D01*
X121941904Y-94419975D01*
X121941905Y-94419976D01*
X121974506Y-94548716D01*
X122001017Y-94653405D01*
X122056766Y-94780501D01*
X122097745Y-94873922D01*
X122229449Y-95075510D01*
X122392537Y-95252671D01*
X122453470Y-95300097D01*
X122520344Y-95352147D01*
X122561157Y-95408857D01*
X122564831Y-95478630D01*
X122530199Y-95539313D01*
X122520344Y-95547853D01*
X122392539Y-95647327D01*
X122392534Y-95647332D01*
X122229449Y-95824490D01*
X122097743Y-96026081D01*
X122001017Y-96246594D01*
X121941904Y-96480027D01*
X121922020Y-96719994D01*
X121922020Y-96720005D01*
X121941904Y-96959972D01*
X122001017Y-97193405D01*
X122050236Y-97305614D01*
X122097745Y-97413922D01*
X122229449Y-97615510D01*
X122392537Y-97792671D01*
X122482608Y-97862776D01*
X122520344Y-97892147D01*
X122561157Y-97948857D01*
X122564831Y-98018630D01*
X122530199Y-98079313D01*
X122520344Y-98087853D01*
X122392539Y-98187327D01*
X122392534Y-98187332D01*
X122229449Y-98364490D01*
X122097743Y-98566081D01*
X122001017Y-98786594D01*
X121941904Y-99020027D01*
X121922020Y-99259994D01*
X121922020Y-99260005D01*
X121941904Y-99499972D01*
X121941904Y-99499975D01*
X121941905Y-99499976D01*
X122001017Y-99733405D01*
X122097745Y-99953922D01*
X122229449Y-100155510D01*
X122392537Y-100332671D01*
X122438844Y-100368713D01*
X122520344Y-100432147D01*
X122561157Y-100488857D01*
X122564831Y-100558630D01*
X122530199Y-100619313D01*
X122520344Y-100627853D01*
X122392539Y-100727327D01*
X122392534Y-100727332D01*
X122229449Y-100904490D01*
X122097743Y-101106081D01*
X122001017Y-101326594D01*
X121941904Y-101560027D01*
X121922020Y-101799994D01*
X121922020Y-101800005D01*
X121941904Y-102039972D01*
X121941904Y-102039975D01*
X121941905Y-102039976D01*
X122001017Y-102273405D01*
X122097745Y-102493922D01*
X122229449Y-102695510D01*
X122392537Y-102872671D01*
X122482608Y-102942776D01*
X122520344Y-102972147D01*
X122561157Y-103028857D01*
X122564831Y-103098630D01*
X122530199Y-103159313D01*
X122520344Y-103167853D01*
X122392539Y-103267327D01*
X122392534Y-103267332D01*
X122229449Y-103444490D01*
X122097743Y-103646081D01*
X122001017Y-103866594D01*
X121941904Y-104100027D01*
X121922020Y-104339994D01*
X121922020Y-104340005D01*
X121941904Y-104579972D01*
X122001017Y-104813405D01*
X122096070Y-105030105D01*
X122097745Y-105033922D01*
X122229449Y-105235510D01*
X122392537Y-105412671D01*
X122458042Y-105463655D01*
X122520344Y-105512147D01*
X122561157Y-105568857D01*
X122564831Y-105638630D01*
X122530199Y-105699313D01*
X122520344Y-105707853D01*
X122392539Y-105807327D01*
X122392534Y-105807332D01*
X122229445Y-105984494D01*
X122156590Y-106096007D01*
X122103444Y-106141363D01*
X122034213Y-106150787D01*
X121970877Y-106121285D01*
X121965101Y-106115866D01*
X121636819Y-105787584D01*
X121603334Y-105726261D01*
X121600500Y-105699903D01*
X121600500Y-95089060D01*
X121600501Y-95089047D01*
X121600501Y-94920944D01*
X121582748Y-94854690D01*
X121559577Y-94768216D01*
X121548011Y-94748183D01*
X121480524Y-94631290D01*
X121480518Y-94631282D01*
X120487590Y-93638355D01*
X120487588Y-93638352D01*
X120368717Y-93519481D01*
X120368716Y-93519480D01*
X120281904Y-93469360D01*
X120281904Y-93469359D01*
X120281900Y-93469358D01*
X120231785Y-93440423D01*
X120079057Y-93399499D01*
X119920943Y-93399499D01*
X119913347Y-93399499D01*
X119913331Y-93399500D01*
X116300098Y-93399500D01*
X116233059Y-93379815D01*
X116212417Y-93363181D01*
X115636819Y-92787583D01*
X115603334Y-92726260D01*
X115600500Y-92699902D01*
X115600500Y-92304110D01*
X115620185Y-92237071D01*
X115672989Y-92191316D01*
X115742147Y-92181372D01*
X115805703Y-92210397D01*
X115826075Y-92232987D01*
X115961500Y-92426395D01*
X115961505Y-92426401D01*
X116128599Y-92593495D01*
X116225384Y-92661265D01*
X116322165Y-92729032D01*
X116322167Y-92729033D01*
X116322170Y-92729035D01*
X116536337Y-92828903D01*
X116764592Y-92890063D01*
X116952918Y-92906539D01*
X116999999Y-92910659D01*
X117000000Y-92910659D01*
X117000001Y-92910659D01*
X117039234Y-92907226D01*
X117235408Y-92890063D01*
X117463663Y-92828903D01*
X117677830Y-92729035D01*
X117871401Y-92593495D01*
X118038495Y-92426401D01*
X118174035Y-92232830D01*
X118273903Y-92018663D01*
X118335063Y-91790408D01*
X118355659Y-91555000D01*
X118335063Y-91319592D01*
X118273903Y-91091337D01*
X118174035Y-90877171D01*
X118173925Y-90877013D01*
X118038494Y-90683597D01*
X117871402Y-90516506D01*
X117871401Y-90516505D01*
X117685405Y-90386269D01*
X117641781Y-90331692D01*
X117634588Y-90262193D01*
X117666110Y-90199839D01*
X117685405Y-90183119D01*
X117871082Y-90053105D01*
X118038105Y-89886082D01*
X118173600Y-89692578D01*
X118273429Y-89478492D01*
X118273432Y-89478486D01*
X118330636Y-89265000D01*
X117433012Y-89265000D01*
X117465925Y-89207993D01*
X117500000Y-89080826D01*
X117500000Y-88949174D01*
X117465925Y-88822007D01*
X117433012Y-88765000D01*
X118330636Y-88765000D01*
X118330635Y-88764999D01*
X118273432Y-88551513D01*
X118273429Y-88551507D01*
X118173600Y-88337422D01*
X118173599Y-88337420D01*
X118038113Y-88143926D01*
X118038108Y-88143920D01*
X117916053Y-88021865D01*
X117882568Y-87960542D01*
X117887552Y-87890850D01*
X117929424Y-87834917D01*
X117960400Y-87818002D01*
X118092331Y-87768796D01*
X118207546Y-87682546D01*
X118293796Y-87567331D01*
X118344091Y-87432483D01*
X118350500Y-87372873D01*
X118350499Y-85577128D01*
X118344091Y-85517517D01*
X118293796Y-85382669D01*
X118293795Y-85382668D01*
X118293793Y-85382664D01*
X118207547Y-85267455D01*
X118207544Y-85267452D01*
X118092335Y-85181206D01*
X118092328Y-85181202D01*
X117957482Y-85130908D01*
X117957483Y-85130908D01*
X117897883Y-85124501D01*
X117897881Y-85124500D01*
X117897873Y-85124500D01*
X117897864Y-85124500D01*
X116102129Y-85124500D01*
X116102123Y-85124501D01*
X116042516Y-85130908D01*
X115907671Y-85181202D01*
X115907664Y-85181206D01*
X115792455Y-85267452D01*
X115792452Y-85267455D01*
X115706206Y-85382664D01*
X115706202Y-85382671D01*
X115655908Y-85517517D01*
X115649501Y-85577116D01*
X115649501Y-85577123D01*
X115649500Y-85577135D01*
X115649500Y-87372870D01*
X115649501Y-87372876D01*
X115655908Y-87432483D01*
X115706202Y-87567328D01*
X115706206Y-87567335D01*
X115792452Y-87682544D01*
X115792455Y-87682547D01*
X115907664Y-87768793D01*
X115907671Y-87768797D01*
X115907674Y-87768798D01*
X116039598Y-87818002D01*
X116095531Y-87859873D01*
X116119949Y-87925337D01*
X116105098Y-87993610D01*
X116083947Y-88021865D01*
X115961886Y-88143926D01*
X115826400Y-88337420D01*
X115826399Y-88337422D01*
X115726570Y-88551507D01*
X115726567Y-88551514D01*
X115711455Y-88607913D01*
X115675089Y-88667574D01*
X115612242Y-88698102D01*
X115542867Y-88689807D01*
X115488989Y-88645321D01*
X115484292Y-88637817D01*
X115480522Y-88631287D01*
X115480518Y-88631282D01*
X114487590Y-87638355D01*
X114487588Y-87638352D01*
X114368717Y-87519481D01*
X114368709Y-87519475D01*
X114267575Y-87461086D01*
X114267572Y-87461085D01*
X114231786Y-87440423D01*
X114231787Y-87440423D01*
X114170693Y-87424053D01*
X114079057Y-87399499D01*
X113920943Y-87399499D01*
X113913347Y-87399499D01*
X113913331Y-87399500D01*
X113319401Y-87399500D01*
X113252362Y-87379815D01*
X113207019Y-87327905D01*
X113174035Y-87257171D01*
X113174034Y-87257169D01*
X113038494Y-87063597D01*
X112871402Y-86896506D01*
X112871395Y-86896501D01*
X112677834Y-86760967D01*
X112677830Y-86760965D01*
X112677828Y-86760964D01*
X112463663Y-86661097D01*
X112463659Y-86661096D01*
X112463655Y-86661094D01*
X112235413Y-86599938D01*
X112235403Y-86599936D01*
X112000001Y-86579341D01*
X111999999Y-86579341D01*
X111764596Y-86599936D01*
X111764586Y-86599938D01*
X111536344Y-86661094D01*
X111536335Y-86661098D01*
X111322171Y-86760964D01*
X111322169Y-86760965D01*
X111128597Y-86896505D01*
X110961505Y-87063597D01*
X110825965Y-87257169D01*
X110825964Y-87257171D01*
X110726098Y-87471335D01*
X110726094Y-87471344D01*
X110664938Y-87699586D01*
X110664936Y-87699596D01*
X110644341Y-87934999D01*
X110644341Y-87935000D01*
X110664936Y-88170403D01*
X110664938Y-88170413D01*
X110726094Y-88398655D01*
X110726096Y-88398659D01*
X110726097Y-88398663D01*
X110797370Y-88551507D01*
X110825965Y-88612830D01*
X110825967Y-88612834D01*
X110892599Y-88707993D01*
X110961501Y-88806396D01*
X110961506Y-88806402D01*
X111083818Y-88928714D01*
X111117303Y-88990037D01*
X111112319Y-89059729D01*
X111070447Y-89115662D01*
X111039471Y-89132577D01*
X110907912Y-89181646D01*
X110907906Y-89181649D01*
X110792812Y-89267809D01*
X110792809Y-89267812D01*
X110706649Y-89382906D01*
X110706645Y-89382913D01*
X110656403Y-89517620D01*
X110656401Y-89517627D01*
X110650000Y-89577155D01*
X110650000Y-90225000D01*
X111566988Y-90225000D01*
X111534075Y-90282007D01*
X111500000Y-90409174D01*
X111500000Y-90540826D01*
X111534075Y-90667993D01*
X111566988Y-90725000D01*
X110650000Y-90725000D01*
X110650000Y-91372844D01*
X110656401Y-91432372D01*
X110656403Y-91432379D01*
X110706645Y-91567086D01*
X110706649Y-91567093D01*
X110792809Y-91682187D01*
X110792812Y-91682190D01*
X110907906Y-91768350D01*
X110907913Y-91768354D01*
X111042620Y-91818596D01*
X111042627Y-91818598D01*
X111102155Y-91824999D01*
X111102172Y-91825000D01*
X111750000Y-91825000D01*
X111750000Y-90908012D01*
X111807007Y-90940925D01*
X111934174Y-90975000D01*
X112065826Y-90975000D01*
X112192993Y-90940925D01*
X112250000Y-90908012D01*
X112250000Y-91825000D01*
X112897828Y-91825000D01*
X112897844Y-91824999D01*
X112957372Y-91818598D01*
X112957379Y-91818596D01*
X113092086Y-91768354D01*
X113092093Y-91768350D01*
X113207187Y-91682190D01*
X113207190Y-91682187D01*
X113293350Y-91567093D01*
X113293354Y-91567086D01*
X113343596Y-91432379D01*
X113343598Y-91432372D01*
X113349999Y-91372844D01*
X113350000Y-91372827D01*
X113350000Y-90725000D01*
X112433012Y-90725000D01*
X112465925Y-90667993D01*
X112500000Y-90540826D01*
X112500000Y-90409174D01*
X112465925Y-90282007D01*
X112433012Y-90225000D01*
X113350000Y-90225000D01*
X113350000Y-89577172D01*
X113349999Y-89577155D01*
X113343598Y-89517627D01*
X113343596Y-89517620D01*
X113293354Y-89382913D01*
X113293350Y-89382906D01*
X113207190Y-89267812D01*
X113207187Y-89267809D01*
X113092093Y-89181649D01*
X113092088Y-89181646D01*
X112960528Y-89132577D01*
X112904595Y-89090705D01*
X112880178Y-89025241D01*
X112895030Y-88956968D01*
X112916175Y-88928720D01*
X113038495Y-88806401D01*
X113145644Y-88653377D01*
X113200221Y-88609752D01*
X113247219Y-88600500D01*
X113699903Y-88600500D01*
X113766942Y-88620185D01*
X113787584Y-88636819D01*
X114363181Y-89212416D01*
X114396666Y-89273739D01*
X114399500Y-89300097D01*
X114399500Y-92913330D01*
X114399499Y-92913348D01*
X114399499Y-93079054D01*
X114399498Y-93079054D01*
X114440423Y-93231785D01*
X114469358Y-93281900D01*
X114469359Y-93281904D01*
X114469360Y-93281904D01*
X114516284Y-93363181D01*
X114519479Y-93368714D01*
X114519481Y-93368717D01*
X114638349Y-93487585D01*
X114638354Y-93487589D01*
X115631284Y-94480520D01*
X115631286Y-94480521D01*
X115631290Y-94480524D01*
X115741883Y-94544374D01*
X115768216Y-94559577D01*
X115920943Y-94600501D01*
X115920945Y-94600501D01*
X116086654Y-94600501D01*
X116086670Y-94600500D01*
X119699903Y-94600500D01*
X119766942Y-94620185D01*
X119787584Y-94636819D01*
X120363181Y-95212416D01*
X120396666Y-95273739D01*
X120399500Y-95300097D01*
X120399500Y-105913330D01*
X120399499Y-105913348D01*
X120399499Y-106079054D01*
X120399498Y-106079054D01*
X120440424Y-106231789D01*
X120440425Y-106231790D01*
X120464739Y-106273902D01*
X120464740Y-106273904D01*
X120519475Y-106368709D01*
X120519481Y-106368717D01*
X120638349Y-106487585D01*
X120638355Y-106487590D01*
X121395139Y-107244374D01*
X121395149Y-107244385D01*
X121399479Y-107248715D01*
X121399480Y-107248716D01*
X121511284Y-107360520D01*
X121586459Y-107403922D01*
X121648215Y-107439577D01*
X121800943Y-107480501D01*
X121800946Y-107480501D01*
X121966653Y-107480501D01*
X121966669Y-107480500D01*
X121975753Y-107480500D01*
X122042792Y-107500185D01*
X122088547Y-107552989D01*
X122089309Y-107554691D01*
X122097742Y-107573916D01*
X122097745Y-107573922D01*
X122229449Y-107775510D01*
X122244645Y-107792017D01*
X122275567Y-107854672D01*
X122267707Y-107924098D01*
X122223560Y-107978253D01*
X122157142Y-107999944D01*
X122153415Y-108000000D01*
X121000000Y-108000000D01*
X120361763Y-109914712D01*
X120321889Y-109972087D01*
X120257325Y-109998795D01*
X120244126Y-109999500D01*
X106006962Y-109999500D01*
X105993078Y-109998720D01*
X105980553Y-109997308D01*
X105902735Y-109988540D01*
X105875666Y-109982362D01*
X105796462Y-109954648D01*
X105771444Y-109942600D01*
X105700395Y-109897957D01*
X105678686Y-109880644D01*
X105619355Y-109821313D01*
X105602042Y-109799604D01*
X105557399Y-109728555D01*
X105545351Y-109703537D01*
X105517637Y-109624333D01*
X105511459Y-109597263D01*
X105501280Y-109506922D01*
X105500500Y-109493038D01*
X105500500Y-106999998D01*
X105994390Y-106999998D01*
X105994390Y-107000001D01*
X106014804Y-107285433D01*
X106075628Y-107565037D01*
X106075630Y-107565043D01*
X106075631Y-107565046D01*
X106128485Y-107706753D01*
X106175635Y-107833166D01*
X106312770Y-108084309D01*
X106312775Y-108084317D01*
X106484254Y-108313387D01*
X106484270Y-108313405D01*
X106686594Y-108515729D01*
X106686612Y-108515745D01*
X106915682Y-108687224D01*
X106915690Y-108687229D01*
X107166833Y-108824364D01*
X107166832Y-108824364D01*
X107166836Y-108824365D01*
X107166839Y-108824367D01*
X107434954Y-108924369D01*
X107434960Y-108924370D01*
X107434962Y-108924371D01*
X107714566Y-108985195D01*
X107714568Y-108985195D01*
X107714572Y-108985196D01*
X107968220Y-109003337D01*
X107999999Y-109005610D01*
X108000000Y-109005610D01*
X108000001Y-109005610D01*
X108028595Y-109003564D01*
X108285428Y-108985196D01*
X108565046Y-108924369D01*
X108833161Y-108824367D01*
X109084315Y-108687226D01*
X109313395Y-108515739D01*
X109515739Y-108313395D01*
X109687226Y-108084315D01*
X109824367Y-107833161D01*
X109924369Y-107565046D01*
X109951663Y-107439577D01*
X109985195Y-107285433D01*
X109985195Y-107285432D01*
X109985196Y-107285428D01*
X110005610Y-107000000D01*
X109985196Y-106714572D01*
X109952122Y-106562535D01*
X109924371Y-106434962D01*
X109924370Y-106434960D01*
X109924369Y-106434954D01*
X109824367Y-106166839D01*
X109783552Y-106092093D01*
X109687229Y-105915690D01*
X109687224Y-105915682D01*
X109515745Y-105686612D01*
X109515729Y-105686594D01*
X109313405Y-105484270D01*
X109313387Y-105484254D01*
X109084317Y-105312775D01*
X109084309Y-105312770D01*
X108833166Y-105175635D01*
X108833167Y-105175635D01*
X108725915Y-105135632D01*
X108565046Y-105075631D01*
X108565043Y-105075630D01*
X108565037Y-105075628D01*
X108285433Y-105014804D01*
X108000001Y-104994390D01*
X107999999Y-104994390D01*
X107714566Y-105014804D01*
X107434962Y-105075628D01*
X107166833Y-105175635D01*
X106915690Y-105312770D01*
X106915682Y-105312775D01*
X106686612Y-105484254D01*
X106686594Y-105484270D01*
X106484270Y-105686594D01*
X106484254Y-105686612D01*
X106312775Y-105915682D01*
X106312770Y-105915690D01*
X106175635Y-106166833D01*
X106075628Y-106434962D01*
X106014804Y-106714566D01*
X105994390Y-106999998D01*
X105500500Y-106999998D01*
X105500500Y-98349983D01*
X113524500Y-98349983D01*
X113524500Y-99650001D01*
X113524501Y-99650018D01*
X113535000Y-99752796D01*
X113535001Y-99752799D01*
X113590185Y-99919331D01*
X113590187Y-99919336D01*
X113682289Y-100068657D01*
X113806344Y-100192712D01*
X113961120Y-100288178D01*
X114007845Y-100340126D01*
X114019068Y-100409088D01*
X113991224Y-100473171D01*
X113983706Y-100481398D01*
X113844889Y-100620215D01*
X113719951Y-100792179D01*
X113623444Y-100981585D01*
X113623443Y-100981587D01*
X113623443Y-100981588D01*
X113590598Y-101082672D01*
X113557753Y-101183760D01*
X113524500Y-101393713D01*
X113524500Y-101606286D01*
X113557753Y-101816239D01*
X113623444Y-102018414D01*
X113719951Y-102207820D01*
X113844890Y-102379786D01*
X113995209Y-102530105D01*
X113995214Y-102530109D01*
X114159793Y-102649682D01*
X114202459Y-102705011D01*
X114208438Y-102774625D01*
X114175833Y-102836420D01*
X114159793Y-102850318D01*
X113995214Y-102969890D01*
X113995209Y-102969894D01*
X113844890Y-103120213D01*
X113719951Y-103292179D01*
X113623444Y-103481585D01*
X113623443Y-103481587D01*
X113623443Y-103481588D01*
X113590598Y-103582672D01*
X113557753Y-103683760D01*
X113536611Y-103817246D01*
X113524500Y-103893713D01*
X113524500Y-104106287D01*
X113557754Y-104316243D01*
X113565471Y-104339994D01*
X113623444Y-104518414D01*
X113719951Y-104707820D01*
X113844890Y-104879786D01*
X113995209Y-105030105D01*
X113995214Y-105030109D01*
X114160218Y-105149991D01*
X114202884Y-105205320D01*
X114208863Y-105274934D01*
X114176258Y-105336729D01*
X114160218Y-105350627D01*
X113995540Y-105470272D01*
X113995535Y-105470276D01*
X113845276Y-105620535D01*
X113845272Y-105620540D01*
X113720379Y-105792442D01*
X113623904Y-105981782D01*
X113558242Y-106183870D01*
X113558242Y-106183873D01*
X113547769Y-106250000D01*
X114595854Y-106250000D01*
X114557370Y-106316657D01*
X114525000Y-106437465D01*
X114525000Y-106562535D01*
X114557370Y-106683343D01*
X114595854Y-106750000D01*
X113547769Y-106750000D01*
X113558242Y-106816126D01*
X113558242Y-106816129D01*
X113623904Y-107018217D01*
X113720379Y-107207557D01*
X113845272Y-107379459D01*
X113845276Y-107379464D01*
X113995535Y-107529723D01*
X113995540Y-107529727D01*
X114167442Y-107654620D01*
X114356782Y-107751095D01*
X114558872Y-107816757D01*
X114750000Y-107847029D01*
X114750000Y-106904145D01*
X114816657Y-106942630D01*
X114937465Y-106975000D01*
X115062535Y-106975000D01*
X115183343Y-106942630D01*
X115250000Y-106904145D01*
X115250000Y-107847028D01*
X115441127Y-107816757D01*
X115643217Y-107751095D01*
X115832557Y-107654620D01*
X116004459Y-107529727D01*
X116004464Y-107529723D01*
X116154723Y-107379464D01*
X116154727Y-107379459D01*
X116279620Y-107207557D01*
X116376095Y-107018217D01*
X116441757Y-106816129D01*
X116441757Y-106816126D01*
X116452231Y-106750000D01*
X115404146Y-106750000D01*
X115442630Y-106683343D01*
X115475000Y-106562535D01*
X115475000Y-106437465D01*
X115442630Y-106316657D01*
X115404146Y-106250000D01*
X116452231Y-106250000D01*
X116441757Y-106183873D01*
X116441757Y-106183870D01*
X116376095Y-105981782D01*
X116279620Y-105792442D01*
X116154727Y-105620540D01*
X116154723Y-105620535D01*
X116004464Y-105470276D01*
X116004459Y-105470272D01*
X115839781Y-105350627D01*
X115797115Y-105295297D01*
X115791136Y-105225684D01*
X115823741Y-105163889D01*
X115839776Y-105149994D01*
X116004792Y-105030104D01*
X116155104Y-104879792D01*
X116155106Y-104879788D01*
X116155109Y-104879786D01*
X116280048Y-104707820D01*
X116280047Y-104707820D01*
X116280051Y-104707816D01*
X116376557Y-104518412D01*
X116442246Y-104316243D01*
X116475500Y-104106287D01*
X116475500Y-103893713D01*
X116442246Y-103683757D01*
X116376557Y-103481588D01*
X116280051Y-103292184D01*
X116280049Y-103292181D01*
X116280048Y-103292179D01*
X116155109Y-103120213D01*
X116004792Y-102969896D01*
X116004784Y-102969890D01*
X115840204Y-102850316D01*
X115797540Y-102794989D01*
X115791561Y-102725376D01*
X115824166Y-102663580D01*
X115840199Y-102649686D01*
X116004792Y-102530104D01*
X116155104Y-102379792D01*
X116155106Y-102379788D01*
X116155109Y-102379786D01*
X116280048Y-102207820D01*
X116280047Y-102207820D01*
X116280051Y-102207816D01*
X116376557Y-102018412D01*
X116442246Y-101816243D01*
X116475500Y-101606287D01*
X116475500Y-101393713D01*
X116442246Y-101183757D01*
X116376557Y-100981588D01*
X116280051Y-100792184D01*
X116280049Y-100792181D01*
X116280048Y-100792179D01*
X116155109Y-100620213D01*
X116016294Y-100481398D01*
X115982809Y-100420075D01*
X115987793Y-100350383D01*
X116029665Y-100294450D01*
X116038879Y-100288178D01*
X116044331Y-100284814D01*
X116044334Y-100284814D01*
X116193656Y-100192712D01*
X116317712Y-100068656D01*
X116409814Y-99919334D01*
X116464999Y-99752797D01*
X116475500Y-99650009D01*
X116475499Y-98349992D01*
X116464999Y-98247203D01*
X116409814Y-98080666D01*
X116317712Y-97931344D01*
X116193656Y-97807288D01*
X116044334Y-97715186D01*
X115877797Y-97660001D01*
X115877795Y-97660000D01*
X115775010Y-97649500D01*
X114224998Y-97649500D01*
X114224981Y-97649501D01*
X114122203Y-97660000D01*
X114122200Y-97660001D01*
X113955668Y-97715185D01*
X113955663Y-97715187D01*
X113806342Y-97807289D01*
X113682289Y-97931342D01*
X113590187Y-98080663D01*
X113590185Y-98080668D01*
X113574909Y-98126769D01*
X113535001Y-98247203D01*
X113535001Y-98247204D01*
X113535000Y-98247204D01*
X113524500Y-98349983D01*
X105500500Y-98349983D01*
X105500500Y-80999998D01*
X105994390Y-80999998D01*
X105994390Y-81000001D01*
X106014804Y-81285433D01*
X106075628Y-81565037D01*
X106075630Y-81565043D01*
X106075631Y-81565046D01*
X106153800Y-81774625D01*
X106175635Y-81833166D01*
X106312770Y-82084309D01*
X106312775Y-82084317D01*
X106484254Y-82313387D01*
X106484270Y-82313405D01*
X106686594Y-82515729D01*
X106686612Y-82515745D01*
X106915682Y-82687224D01*
X106915690Y-82687229D01*
X107166833Y-82824364D01*
X107166832Y-82824364D01*
X107166836Y-82824365D01*
X107166839Y-82824367D01*
X107434954Y-82924369D01*
X107434960Y-82924370D01*
X107434962Y-82924371D01*
X107714566Y-82985195D01*
X107714568Y-82985195D01*
X107714572Y-82985196D01*
X107968220Y-83003337D01*
X107999999Y-83005610D01*
X108000000Y-83005610D01*
X108000001Y-83005610D01*
X108028595Y-83003564D01*
X108285428Y-82985196D01*
X108565046Y-82924369D01*
X108833161Y-82824367D01*
X109084315Y-82687226D01*
X109313395Y-82515739D01*
X109515739Y-82313395D01*
X109687226Y-82084315D01*
X109824367Y-81833161D01*
X109924369Y-81565046D01*
X109969918Y-81355659D01*
X109985195Y-81285433D01*
X109985195Y-81285432D01*
X109985196Y-81285428D01*
X110005610Y-81000000D01*
X109985196Y-80714572D01*
X109977203Y-80677830D01*
X109924371Y-80434962D01*
X109924370Y-80434960D01*
X109924369Y-80434954D01*
X109824367Y-80166839D01*
X109744025Y-80019705D01*
X109687229Y-79915690D01*
X109687224Y-79915682D01*
X109515745Y-79686612D01*
X109515729Y-79686594D01*
X109313405Y-79484270D01*
X109313387Y-79484254D01*
X109084317Y-79312775D01*
X109084309Y-79312770D01*
X108833166Y-79175635D01*
X108833167Y-79175635D01*
X108707053Y-79128597D01*
X108565046Y-79075631D01*
X108565043Y-79075630D01*
X108565037Y-79075628D01*
X108285433Y-79014804D01*
X108000001Y-78994390D01*
X107999999Y-78994390D01*
X107714566Y-79014804D01*
X107434962Y-79075628D01*
X107166833Y-79175635D01*
X106915690Y-79312770D01*
X106915682Y-79312775D01*
X106686612Y-79484254D01*
X106686594Y-79484270D01*
X106484270Y-79686594D01*
X106484254Y-79686612D01*
X106312775Y-79915682D01*
X106312770Y-79915690D01*
X106175635Y-80166833D01*
X106075628Y-80434962D01*
X106014804Y-80714566D01*
X105994390Y-80999998D01*
X105500500Y-80999998D01*
X105500500Y-78506961D01*
X105501280Y-78493077D01*
X105501280Y-78493076D01*
X105511459Y-78402731D01*
X105517635Y-78375670D01*
X105545353Y-78296456D01*
X105557396Y-78271450D01*
X105602046Y-78200389D01*
X105619351Y-78178690D01*
X105678690Y-78119351D01*
X105700389Y-78102046D01*
X105771450Y-78057396D01*
X105796456Y-78045353D01*
X105875670Y-78017635D01*
X105902733Y-78011459D01*
X105965419Y-78004396D01*
X105993079Y-78001280D01*
X106006962Y-78000500D01*
X106065892Y-78000500D01*
X161934108Y-78000500D01*
X161993038Y-78000500D01*
X162006922Y-78001280D01*
G37*
%TD.AperFunction*%
%TA.AperFunction,Conductor*%
G36*
X154766942Y-83620185D02*
G01*
X154787584Y-83636819D01*
X155363181Y-84212416D01*
X155396666Y-84273739D01*
X155399500Y-84300097D01*
X155399500Y-98699902D01*
X155379815Y-98766941D01*
X155363181Y-98787583D01*
X154787584Y-99363181D01*
X154726261Y-99396666D01*
X154699903Y-99399500D01*
X154410719Y-99399500D01*
X154343680Y-99379815D01*
X154300235Y-99331795D01*
X154280052Y-99292185D01*
X154280051Y-99292184D01*
X154155109Y-99120213D01*
X154004792Y-98969896D01*
X153937412Y-98920942D01*
X153840204Y-98850316D01*
X153797540Y-98794989D01*
X153791561Y-98725376D01*
X153824166Y-98663580D01*
X153840199Y-98649686D01*
X154004792Y-98530104D01*
X154155104Y-98379792D01*
X154155106Y-98379788D01*
X154155109Y-98379786D01*
X154280048Y-98207820D01*
X154280047Y-98207820D01*
X154280051Y-98207816D01*
X154376557Y-98018412D01*
X154442246Y-97816243D01*
X154475500Y-97606287D01*
X154475500Y-97393713D01*
X154442246Y-97183757D01*
X154376557Y-96981588D01*
X154280051Y-96792184D01*
X154280049Y-96792181D01*
X154280048Y-96792179D01*
X154155109Y-96620213D01*
X154004786Y-96469890D01*
X153832820Y-96344951D01*
X153643414Y-96248444D01*
X153643413Y-96248443D01*
X153643412Y-96248443D01*
X153441243Y-96182754D01*
X153441241Y-96182753D01*
X153441240Y-96182753D01*
X153279957Y-96157208D01*
X153231287Y-96149500D01*
X152768713Y-96149500D01*
X152700721Y-96160268D01*
X152598052Y-96176530D01*
X152528758Y-96167575D01*
X152490973Y-96141738D01*
X151987590Y-95638355D01*
X151987588Y-95638352D01*
X151868717Y-95519481D01*
X151868716Y-95519480D01*
X151781904Y-95469360D01*
X151781904Y-95469359D01*
X151781900Y-95469358D01*
X151731785Y-95440423D01*
X151579057Y-95399499D01*
X151420943Y-95399499D01*
X151413347Y-95399499D01*
X151413331Y-95399500D01*
X141588626Y-95399500D01*
X141521587Y-95379815D01*
X141510918Y-95371217D01*
X141510548Y-95371682D01*
X141505105Y-95367341D01*
X141352366Y-95271368D01*
X141182097Y-95211788D01*
X141182092Y-95211787D01*
X141002847Y-95191592D01*
X141002839Y-95191592D01*
X140823593Y-95211787D01*
X140823580Y-95211790D01*
X140646749Y-95273667D01*
X140645863Y-95271135D01*
X140588967Y-95280484D01*
X140524842Y-95252739D01*
X140496763Y-95219417D01*
X140480522Y-95191287D01*
X140480518Y-95191282D01*
X140037419Y-94748183D01*
X140003934Y-94686860D01*
X140004894Y-94630062D01*
X140022743Y-94559577D01*
X140058095Y-94419976D01*
X140077980Y-94180000D01*
X140058095Y-93940024D01*
X139998983Y-93706595D01*
X139902255Y-93486078D01*
X139770551Y-93284490D01*
X139607463Y-93107329D01*
X139479656Y-93007853D01*
X139438843Y-92951143D01*
X139435168Y-92881370D01*
X139469800Y-92820687D01*
X139479656Y-92812147D01*
X139511214Y-92787584D01*
X139607463Y-92712671D01*
X139770551Y-92535510D01*
X139902255Y-92333922D01*
X139998983Y-92113405D01*
X140058095Y-91879976D01*
X140073612Y-91692712D01*
X140077980Y-91640005D01*
X140077980Y-91639994D01*
X140058095Y-91400027D01*
X140058095Y-91400024D01*
X139998983Y-91166595D01*
X139902255Y-90946078D01*
X139770551Y-90744490D01*
X139607463Y-90567329D01*
X139479656Y-90467853D01*
X139438843Y-90411143D01*
X139435168Y-90341370D01*
X139469800Y-90280687D01*
X139479656Y-90272147D01*
X139500072Y-90256255D01*
X139607463Y-90172671D01*
X139770551Y-89995510D01*
X139902255Y-89793922D01*
X139998983Y-89573405D01*
X140058095Y-89339976D01*
X140068956Y-89208903D01*
X140077980Y-89100005D01*
X140077980Y-89099994D01*
X140058095Y-88860027D01*
X140058095Y-88860024D01*
X139998983Y-88626595D01*
X139902255Y-88406078D01*
X139770551Y-88204490D01*
X139607463Y-88027329D01*
X139473358Y-87922951D01*
X139417441Y-87879429D01*
X139205665Y-87764821D01*
X139205656Y-87764818D01*
X138977916Y-87686634D01*
X138799777Y-87656908D01*
X138740399Y-87647000D01*
X138499601Y-87647000D01*
X138452098Y-87654926D01*
X138262083Y-87686634D01*
X138034343Y-87764818D01*
X138034334Y-87764821D01*
X137822558Y-87879429D01*
X137718345Y-87960542D01*
X137632537Y-88027329D01*
X137632534Y-88027331D01*
X137632534Y-88027332D01*
X137469449Y-88204490D01*
X137337743Y-88406081D01*
X137241017Y-88626594D01*
X137181904Y-88860027D01*
X137162020Y-89099994D01*
X137162020Y-89100005D01*
X137181904Y-89339972D01*
X137241017Y-89573405D01*
X137317252Y-89747204D01*
X137337745Y-89793922D01*
X137469449Y-89995510D01*
X137632537Y-90172671D01*
X137722608Y-90242776D01*
X137760344Y-90272147D01*
X137801157Y-90328857D01*
X137804831Y-90398630D01*
X137770199Y-90459313D01*
X137760344Y-90467853D01*
X137632539Y-90567327D01*
X137632534Y-90567332D01*
X137469449Y-90744490D01*
X137337743Y-90946081D01*
X137241017Y-91166594D01*
X137181904Y-91400027D01*
X137162020Y-91639994D01*
X137162020Y-91640005D01*
X137181904Y-91879972D01*
X137241017Y-92113405D01*
X137293403Y-92232834D01*
X137337745Y-92333922D01*
X137469449Y-92535510D01*
X137632537Y-92712671D01*
X137682123Y-92751265D01*
X137760344Y-92812147D01*
X137801157Y-92868857D01*
X137804831Y-92938630D01*
X137770199Y-92999313D01*
X137760344Y-93007853D01*
X137632539Y-93107327D01*
X137632534Y-93107332D01*
X137469449Y-93284490D01*
X137420301Y-93359717D01*
X137367154Y-93405073D01*
X137297923Y-93414497D01*
X137234587Y-93384995D01*
X137228811Y-93379576D01*
X136636819Y-92787584D01*
X136603334Y-92726261D01*
X136600500Y-92699903D01*
X136600500Y-84724500D01*
X136620185Y-84657461D01*
X136672989Y-84611706D01*
X136724500Y-84600500D01*
X137279903Y-84600500D01*
X137346942Y-84620185D01*
X137367584Y-84636819D01*
X138595139Y-85864374D01*
X138595149Y-85864385D01*
X138599479Y-85868715D01*
X138599480Y-85868716D01*
X138711284Y-85980520D01*
X138711286Y-85980521D01*
X138711290Y-85980524D01*
X138848209Y-86059573D01*
X138848216Y-86059577D01*
X138960019Y-86089534D01*
X139000942Y-86100500D01*
X139000943Y-86100500D01*
X143589281Y-86100500D01*
X143656320Y-86120185D01*
X143699765Y-86168205D01*
X143719947Y-86207814D01*
X143719948Y-86207815D01*
X143844890Y-86379786D01*
X143995209Y-86530105D01*
X143995214Y-86530109D01*
X144160218Y-86649991D01*
X144202884Y-86705320D01*
X144208863Y-86774934D01*
X144176258Y-86836729D01*
X144160218Y-86850627D01*
X143995540Y-86970272D01*
X143995535Y-86970276D01*
X143845276Y-87120535D01*
X143845272Y-87120540D01*
X143720379Y-87292442D01*
X143623904Y-87481782D01*
X143558242Y-87683870D01*
X143558242Y-87683873D01*
X143547769Y-87750000D01*
X144595854Y-87750000D01*
X144557370Y-87816657D01*
X144525000Y-87937465D01*
X144525000Y-88062535D01*
X144557370Y-88183343D01*
X144595854Y-88250000D01*
X143547769Y-88250000D01*
X143558242Y-88316126D01*
X143558242Y-88316129D01*
X143623904Y-88518217D01*
X143720379Y-88707557D01*
X143845272Y-88879459D01*
X143845276Y-88879464D01*
X143984143Y-89018331D01*
X144017628Y-89079654D01*
X144012644Y-89149346D01*
X143970772Y-89205279D01*
X143961559Y-89211551D01*
X143806342Y-89307289D01*
X143682289Y-89431342D01*
X143590187Y-89580663D01*
X143590186Y-89580666D01*
X143535001Y-89747203D01*
X143535001Y-89747204D01*
X143535000Y-89747204D01*
X143524500Y-89849983D01*
X143524500Y-91150001D01*
X143524501Y-91150018D01*
X143535000Y-91252796D01*
X143535001Y-91252799D01*
X143557136Y-91319596D01*
X143590186Y-91419334D01*
X143682288Y-91568656D01*
X143806344Y-91692712D01*
X143955666Y-91784814D01*
X144122203Y-91839999D01*
X144224991Y-91850500D01*
X145775008Y-91850499D01*
X145877797Y-91839999D01*
X146044334Y-91784814D01*
X146193656Y-91692712D01*
X146317712Y-91568656D01*
X146409814Y-91419334D01*
X146464999Y-91252797D01*
X146469177Y-91211896D01*
X146495573Y-91147207D01*
X146552753Y-91107055D01*
X146592535Y-91100500D01*
X151407465Y-91100500D01*
X151474504Y-91120185D01*
X151520259Y-91172989D01*
X151530823Y-91211898D01*
X151535001Y-91252797D01*
X151535001Y-91252799D01*
X151557136Y-91319596D01*
X151590186Y-91419334D01*
X151682288Y-91568656D01*
X151806344Y-91692712D01*
X151955666Y-91784814D01*
X152122203Y-91839999D01*
X152224991Y-91850500D01*
X153775008Y-91850499D01*
X153877797Y-91839999D01*
X154044334Y-91784814D01*
X154193656Y-91692712D01*
X154317712Y-91568656D01*
X154409814Y-91419334D01*
X154464999Y-91252797D01*
X154475500Y-91150009D01*
X154475499Y-89849992D01*
X154473151Y-89827011D01*
X154464999Y-89747203D01*
X154464998Y-89747200D01*
X154429641Y-89640500D01*
X154409814Y-89580666D01*
X154317712Y-89431344D01*
X154193656Y-89307288D01*
X154044334Y-89215186D01*
X154044332Y-89215185D01*
X154038440Y-89211551D01*
X153991716Y-89159603D01*
X153980493Y-89090641D01*
X154008337Y-89026558D01*
X154015856Y-89018330D01*
X154154728Y-88879458D01*
X154279620Y-88707557D01*
X154376095Y-88518217D01*
X154441757Y-88316129D01*
X154441757Y-88316126D01*
X154452231Y-88250000D01*
X153404146Y-88250000D01*
X153442630Y-88183343D01*
X153475000Y-88062535D01*
X153475000Y-87937465D01*
X153442630Y-87816657D01*
X153404146Y-87750000D01*
X154452231Y-87750000D01*
X154441757Y-87683873D01*
X154441757Y-87683870D01*
X154376095Y-87481782D01*
X154279620Y-87292442D01*
X154154727Y-87120540D01*
X154154723Y-87120535D01*
X154004464Y-86970276D01*
X154004459Y-86970272D01*
X153839781Y-86850627D01*
X153797115Y-86795297D01*
X153791136Y-86725684D01*
X153823741Y-86663889D01*
X153839776Y-86649994D01*
X154004792Y-86530104D01*
X154155104Y-86379792D01*
X154155106Y-86379788D01*
X154155109Y-86379786D01*
X154280048Y-86207820D01*
X154280047Y-86207820D01*
X154280051Y-86207816D01*
X154376557Y-86018412D01*
X154442246Y-85816243D01*
X154475500Y-85606287D01*
X154475500Y-85393713D01*
X154442246Y-85183757D01*
X154376557Y-84981588D01*
X154280051Y-84792184D01*
X154280049Y-84792181D01*
X154280048Y-84792179D01*
X154155109Y-84620213D01*
X154004792Y-84469896D01*
X154004784Y-84469890D01*
X153840204Y-84350316D01*
X153797540Y-84294989D01*
X153791561Y-84225376D01*
X153824166Y-84163580D01*
X153840199Y-84149686D01*
X154004792Y-84030104D01*
X154155104Y-83879792D01*
X154155106Y-83879788D01*
X154155109Y-83879786D01*
X154236168Y-83768216D01*
X154280051Y-83707816D01*
X154280349Y-83707230D01*
X154300235Y-83668205D01*
X154348209Y-83617409D01*
X154410719Y-83600500D01*
X154699903Y-83600500D01*
X154766942Y-83620185D01*
G37*
%TD.AperFunction*%
%TA.AperFunction,Conductor*%
G36*
X151656320Y-86120185D02*
G01*
X151699765Y-86168205D01*
X151719947Y-86207814D01*
X151719948Y-86207815D01*
X151844890Y-86379786D01*
X151995209Y-86530105D01*
X151995214Y-86530109D01*
X152160218Y-86649991D01*
X152202884Y-86705320D01*
X152208863Y-86774934D01*
X152176258Y-86836729D01*
X152160218Y-86850627D01*
X151995540Y-86970272D01*
X151995535Y-86970276D01*
X151845276Y-87120535D01*
X151845272Y-87120540D01*
X151720379Y-87292442D01*
X151623904Y-87481782D01*
X151558242Y-87683870D01*
X151558242Y-87683873D01*
X151547769Y-87750000D01*
X152595854Y-87750000D01*
X152557370Y-87816657D01*
X152525000Y-87937465D01*
X152525000Y-88062535D01*
X152557370Y-88183343D01*
X152595854Y-88250000D01*
X151547769Y-88250000D01*
X151558242Y-88316126D01*
X151558242Y-88316129D01*
X151623904Y-88518217D01*
X151720379Y-88707557D01*
X151845272Y-88879459D01*
X151845276Y-88879464D01*
X151984143Y-89018331D01*
X152017628Y-89079654D01*
X152012644Y-89149346D01*
X151970772Y-89205279D01*
X151961559Y-89211551D01*
X151806342Y-89307289D01*
X151682289Y-89431342D01*
X151590187Y-89580663D01*
X151590186Y-89580666D01*
X151535002Y-89747202D01*
X151535001Y-89747204D01*
X151535000Y-89747205D01*
X151530823Y-89788102D01*
X151504427Y-89852793D01*
X151447247Y-89892945D01*
X151407465Y-89899500D01*
X146592535Y-89899500D01*
X146525496Y-89879815D01*
X146479741Y-89827011D01*
X146469177Y-89788102D01*
X146468663Y-89783071D01*
X146464999Y-89747203D01*
X146409814Y-89580666D01*
X146317712Y-89431344D01*
X146193656Y-89307288D01*
X146044334Y-89215186D01*
X146044332Y-89215185D01*
X146038440Y-89211551D01*
X145991716Y-89159603D01*
X145980493Y-89090641D01*
X146008337Y-89026558D01*
X146015856Y-89018330D01*
X146154728Y-88879458D01*
X146279620Y-88707557D01*
X146376095Y-88518217D01*
X146441757Y-88316129D01*
X146441757Y-88316126D01*
X146452231Y-88250000D01*
X145404146Y-88250000D01*
X145442630Y-88183343D01*
X145475000Y-88062535D01*
X145475000Y-87937465D01*
X145442630Y-87816657D01*
X145404146Y-87750000D01*
X146452231Y-87750000D01*
X146441757Y-87683873D01*
X146441757Y-87683870D01*
X146376095Y-87481782D01*
X146279620Y-87292442D01*
X146154727Y-87120540D01*
X146154723Y-87120535D01*
X146004464Y-86970276D01*
X146004459Y-86970272D01*
X145839781Y-86850627D01*
X145797115Y-86795297D01*
X145791136Y-86725684D01*
X145823741Y-86663889D01*
X145839776Y-86649994D01*
X146004792Y-86530104D01*
X146155104Y-86379792D01*
X146155106Y-86379788D01*
X146155109Y-86379786D01*
X146213661Y-86299193D01*
X146280051Y-86207816D01*
X146280349Y-86207230D01*
X146300235Y-86168205D01*
X146348209Y-86117409D01*
X146410719Y-86100500D01*
X151589281Y-86100500D01*
X151656320Y-86120185D01*
G37*
%TD.AperFunction*%
%TD*%
D19*
X108000000Y-81000000D03*
X108000000Y-107000000D03*
X160000000Y-107000000D03*
X160000000Y-81000000D03*
D20*
X141000000Y-98000000D03*
X141002843Y-95997157D03*
D19*
X115000000Y-99000000D03*
X115000000Y-101500000D03*
X115000000Y-104000000D03*
X115000000Y-106500000D03*
X153000000Y-90500000D03*
X153000000Y-88000000D03*
X153000000Y-85500000D03*
X153000000Y-83000000D03*
X153000000Y-80500000D03*
X145000000Y-97500000D03*
X145000000Y-100000000D03*
X145000000Y-102500000D03*
X145000000Y-105000000D03*
X145000000Y-107500000D03*
X112000000Y-90475000D03*
X112000000Y-87935000D03*
X127000000Y-80000000D03*
X129540000Y-80000000D03*
X132080000Y-80000000D03*
X134620000Y-80000000D03*
X130460000Y-105000000D03*
X133000000Y-105000000D03*
X145000000Y-80500000D03*
X145000000Y-83000000D03*
X145000000Y-85500000D03*
X145000000Y-88000000D03*
X145000000Y-90500000D03*
X117000000Y-86475000D03*
X117000000Y-89015000D03*
X117000000Y-91555000D03*
X153000000Y-107500000D03*
X153000000Y-105000000D03*
X153000000Y-102500000D03*
X153000000Y-100000000D03*
X153000000Y-97500000D03*
X123380000Y-106880000D03*
X123380000Y-104340000D03*
X123380000Y-101800000D03*
X123380000Y-99260000D03*
X123380000Y-94180000D03*
X123380000Y-96720000D03*
X138620000Y-89100000D03*
X123380000Y-89100000D03*
X138620000Y-91640000D03*
X138620000Y-94180000D03*
X138620000Y-96720000D03*
X138620000Y-99260000D03*
X138620000Y-101800000D03*
X138620000Y-104340000D03*
X138620000Y-106880000D03*
X123380000Y-91640000D03*
M02*
