M48
METRIC,TZ
T1C0.300
T2C0.950
T3C1.000
T4C1.270
T5C3.000
%
G90
G05
T1
X141000Y-98000
X141003Y-95997
T2
X115000Y-99000
X115000Y-101500
X115000Y-104000
X115000Y-106500
X145000Y-80500
X145000Y-83000
X145000Y-85500
X145000Y-88000
X145000Y-90500
X145000Y-97500
X145000Y-100000
X145000Y-102500
X145000Y-105000
X145000Y-107500
X153000Y-80500
X153000Y-83000
X153000Y-85500
X153000Y-88000
X153000Y-90500
X153000Y-97500
X153000Y-100000
X153000Y-102500
X153000Y-105000
X153000Y-107500
T3
X112000Y-87935
X112000Y-90475
X117000Y-86475
X117000Y-89015
X117000Y-91555
X127000Y-80000
X129540Y-80000
X130460Y-105000
X132080Y-80000
X133000Y-105000
X134620Y-80000
T4
X123380Y-89100
X123380Y-91640
X123380Y-94180
X123380Y-96720
X123380Y-99260
X123380Y-101800
X123380Y-104340
X123380Y-106880
X138620Y-89100
X138620Y-91640
X138620Y-94180
X138620Y-96720
X138620Y-99260
X138620Y-101800
X138620Y-104340
X138620Y-106880
T5
X108000Y-81000
X108000Y-107000
X160000Y-81000
X160000Y-107000
M30
