%TF.GenerationSoftware,KiCad,Pcbnew,8.0.9-8.0.9-0~ubuntu22.04.1*%
%TF.CreationDate,2025-04-09T02:20:17+02:00*%
%TF.ProjectId,00pcb,30307063-622e-46b6-9963-61645f706362,rev?*%
%TF.SameCoordinates,Original*%
%TF.FileFunction,Legend,Bot*%
%TF.FilePolarity,Positive*%
%FSLAX46Y46*%
G04 Gerber Fmt 4.6, Leading zero omitted, Abs format (unit mm)*
G04 Created by KiCad (PCBNEW 8.0.9-8.0.9-0~ubuntu22.04.1) date 2025-04-09 02:20:17*
%MOMM*%
%LPD*%
G01*
G04 APERTURE LIST*
%ADD10C,0.150000*%
%ADD11C,0.127000*%
%ADD12C,0.350000*%
G04 APERTURE END LIST*
D10*
X137476904Y-84802319D02*
X137476904Y-85611842D01*
X137476904Y-85611842D02*
X137429285Y-85707080D01*
X137429285Y-85707080D02*
X137381666Y-85754700D01*
X137381666Y-85754700D02*
X137286428Y-85802319D01*
X137286428Y-85802319D02*
X137095952Y-85802319D01*
X137095952Y-85802319D02*
X137000714Y-85754700D01*
X137000714Y-85754700D02*
X136953095Y-85707080D01*
X136953095Y-85707080D02*
X136905476Y-85611842D01*
X136905476Y-85611842D02*
X136905476Y-84802319D01*
X135905476Y-85802319D02*
X136476904Y-85802319D01*
X136191190Y-85802319D02*
X136191190Y-84802319D01*
X136191190Y-84802319D02*
X136286428Y-84945176D01*
X136286428Y-84945176D02*
X136381666Y-85040414D01*
X136381666Y-85040414D02*
X136476904Y-85088033D01*
D11*
%TO.C,U1*%
X122000000Y-87650000D02*
X122000000Y-110350000D01*
X126500000Y-87650000D02*
X122000000Y-87650000D01*
X126500000Y-87650000D02*
X126500000Y-86350000D01*
X135500000Y-86350000D02*
X126500000Y-86350000D01*
X135500000Y-87650000D02*
X135500000Y-86350000D01*
X140000000Y-87650000D02*
X135500000Y-87650000D01*
X140000000Y-87650000D02*
X140000000Y-110350000D01*
X140000000Y-110350000D02*
X122000000Y-110350000D01*
%TD*%
D12*
X115000000Y-99000000D03*
X115000000Y-101500000D03*
X115000000Y-104000000D03*
X115000000Y-106500000D03*
X153000000Y-90500000D03*
X153000000Y-88000000D03*
X153000000Y-85500000D03*
X153000000Y-83000000D03*
X153000000Y-80500000D03*
X145000000Y-97500000D03*
X145000000Y-100000000D03*
X145000000Y-102500000D03*
X145000000Y-105000000D03*
X145000000Y-107500000D03*
X112000000Y-90475000D03*
X112000000Y-87935000D03*
X127000000Y-80000000D03*
X129540000Y-80000000D03*
X132080000Y-80000000D03*
X134620000Y-80000000D03*
X130460000Y-105000000D03*
X133000000Y-105000000D03*
X145000000Y-80500000D03*
X145000000Y-83000000D03*
X145000000Y-85500000D03*
X145000000Y-88000000D03*
X145000000Y-90500000D03*
X117000000Y-86475000D03*
X117000000Y-89015000D03*
X117000000Y-91555000D03*
X153000000Y-107500000D03*
X153000000Y-105000000D03*
X153000000Y-102500000D03*
X153000000Y-100000000D03*
X153000000Y-97500000D03*
X123380000Y-106880000D03*
X123380000Y-104340000D03*
X123380000Y-101800000D03*
X123380000Y-99260000D03*
X123380000Y-94180000D03*
X123380000Y-96720000D03*
X138620000Y-89100000D03*
X123380000Y-89100000D03*
X138620000Y-91640000D03*
X138620000Y-94180000D03*
X138620000Y-96720000D03*
X138620000Y-99260000D03*
X138620000Y-101800000D03*
X138620000Y-104340000D03*
X138620000Y-106880000D03*
X123380000Y-91640000D03*
M02*
